{"glyphs":{"0":{"ha":868,"x_min":68,"x_max":800,"o":"m 434 854 q 261 747 333 854 q 190 488 190 640 q 261 229 190 336 q 434 122 333 122 q 607 229 535 122 q 678 488 678 336 q 607 747 678 640 q 434 854 535 854 m 800 488 q 693 143 800 286 q 434 0 586 0 q 175 143 282 0 q 68 488 68 286 q 175 833 68 690 q 434 977 282 977 q 693 833 586 977 q 800 488 800 690 z "},"1":{"ha":502,"x_min":68,"x_max":434,"o":"m 373 122 l 434 122 l 434 0 l 190 0 l 190 122 l 251 122 l 251 813 q 190 779 219 798 l 190 732 l 129 732 l 68 854 q 172 922 94 880 q 373 977 249 964 l 373 122 z "},"2":{"ha":807,"x_min":68,"x_max":739,"o":"m 617 183 l 739 183 l 739 0 l 68 0 l 68 122 q 154 329 68 245 q 342 450 209 383 l 394 475 q 444 502 422 490 q 531 559 498 532 q 617 732 617 631 q 589 803 617 774 q 526 839 566 826 q 434 854 480 854 q 292 830 362 854 q 190 779 239 811 l 190 732 l 129 732 l 68 854 q 159 916 98 885 q 434 977 281 977 q 655 923 581 977 q 739 732 739 863 q 653 500 739 589 q 465 381 595 439 l 413 359 q 363 336 383 346 q 276 286 309 311 q 190 122 190 222 l 617 122 l 617 183 z "},"3":{"ha":807,"x_min":68,"x_max":739,"o":"m 642 488 q 739 244 739 397 q 655 54 739 113 q 434 0 581 0 q 159 61 281 0 q 68 122 98 92 l 68 244 l 190 244 l 190 197 q 292 146 239 165 q 434 122 362 122 q 526 137 479 122 q 617 244 617 168 q 556 427 617 376 l 373 427 l 312 549 l 556 549 q 617 732 617 602 q 526 839 617 808 q 434 854 479 854 q 292 830 362 854 q 190 779 239 811 l 190 732 l 129 732 l 68 854 q 159 916 98 885 q 434 977 281 977 q 655 923 581 977 q 739 732 739 863 q 642 488 739 580 z "},"4":{"ha":807,"x_min":68,"x_max":739,"o":"m 556 854 q 449 755 510 824 q 350 623 396 695 q 251 427 293 532 l 556 427 l 556 854 m 739 427 l 678 305 l 678 122 l 739 122 l 739 0 l 495 0 l 495 122 l 556 122 l 556 305 l 68 305 q 380 824 182 610 q 556 977 479 930 l 678 977 l 678 427 l 739 427 z "},"5":{"ha":746,"x_min":68,"x_max":678,"o":"m 251 610 q 465 572 357 610 q 678 305 678 496 q 594 84 678 168 q 373 0 510 0 q 197 41 272 0 q 102 122 140 72 l 68 122 l 68 244 l 190 244 q 236 183 205 214 q 373 122 296 122 q 556 305 556 122 q 404 465 556 420 q 251 488 327 488 l 129 488 l 129 977 l 678 977 l 617 793 l 556 793 l 556 854 l 251 854 l 251 610 z "},"6":{"ha":753,"x_min":68,"x_max":685,"o":"m 380 122 q 563 305 563 122 q 486 488 563 437 q 408 513 450 513 q 319 488 367 513 q 188 382 247 452 q 197 305 190 344 q 212 250 201 278 q 246 190 226 216 q 380 122 298 122 m 319 610 q 397 623 354 623 q 423 621 410 623 q 544 587 490 616 q 685 305 685 509 q 601 84 685 168 q 380 0 517 0 q 142 113 220 0 q 96 213 113 155 q 83 262 88 235 q 75 305 79 280 q 68 387 68 344 q 75 484 68 433 q 138 692 92 595 q 502 977 255 935 l 624 977 l 563 793 l 502 793 l 502 854 q 338 780 423 854 q 204 557 239 693 q 319 610 256 589 z "},"7":{"ha":685,"x_min":68,"x_max":617,"o":"m 617 977 l 617 854 l 373 122 l 434 122 l 434 0 l 190 0 l 190 122 l 251 122 l 495 854 l 190 854 l 190 793 l 68 854 l 68 977 l 617 977 z "},"8":{"ha":807,"x_min":68,"x_max":739,"o":"m 251 427 q 190 244 190 376 q 218 174 190 202 q 281 137 241 151 q 373 122 328 122 l 434 122 q 526 137 479 122 q 617 244 617 168 q 556 427 617 376 l 251 427 m 373 854 q 281 839 328 854 q 190 732 190 808 q 251 549 190 602 l 556 549 q 617 732 617 602 q 526 839 617 808 q 434 854 479 854 l 373 854 m 739 244 q 655 54 739 113 q 434 0 581 0 l 373 0 q 152 54 227 0 q 68 244 68 113 q 165 488 68 397 q 68 732 68 580 q 152 923 68 863 q 373 977 227 977 l 434 977 q 655 923 581 977 q 739 732 739 863 q 642 488 739 580 q 739 244 739 397 z "},"9":{"ha":753,"x_min":68,"x_max":685,"o":"m 373 854 q 190 671 190 854 q 267 488 190 539 q 345 465 302 465 q 434 488 387 465 q 565 595 506 524 q 556 671 563 633 q 540 727 551 699 q 507 787 526 761 q 373 854 454 854 m 434 366 q 355 354 398 354 q 329 355 342 354 q 208 390 263 360 q 68 671 68 468 q 152 892 68 808 q 373 977 236 977 q 610 864 532 977 q 657 764 639 822 q 670 715 664 741 q 678 671 674 696 q 685 591 685 633 q 677 492 685 545 q 614 285 661 382 q 251 0 497 41 l 129 0 l 190 183 l 251 183 l 251 122 q 414 197 329 122 q 549 420 513 283 q 434 366 496 387 z "},"\u0000":{"ha":0,"x_min":0,"x_max":0,"o":""},"\u001d":{"ha":0,"x_min":0,"x_max":0,"o":""}," ":{"ha":345,"x_min":0,"x_max":0,"o":""}," ":{"ha":345,"x_min":0,"x_max":0,"o":""},"!":{"ha":380,"x_min":68,"x_max":312,"o":"m 251 977 l 251 366 l 312 366 l 312 244 l 251 244 l 129 305 l 129 854 l 68 854 l 68 977 l 251 977 m 312 31 q 285 -34 312 -7 q 220 -61 258 -61 q 156 -34 182 -61 q 129 31 129 -7 q 156 95 129 68 q 220 122 182 122 q 285 95 258 122 q 312 31 312 68 z "},"\"":{"ha":543,"x_min":68,"x_max":475,"o":"m 225 949 q 252 885 252 924 q 160 671 252 849 q 68 885 68 848 q 95 949 68 924 q 160 977 121 977 q 225 949 199 977 m 448 949 q 475 885 475 924 q 382 671 475 849 q 290 885 290 848 q 317 949 290 924 q 382 977 344 977 q 448 949 421 977 z "},"#":{"ha":807,"x_min":68,"x_max":739,"o":"m 617 977 l 598 671 l 739 671 l 739 549 l 591 549 l 583 427 l 739 427 l 739 305 l 575 305 l 556 0 l 434 0 l 453 305 l 331 305 l 312 0 l 190 0 l 209 305 l 68 305 l 68 427 l 216 427 l 224 549 l 68 549 l 68 671 l 232 671 l 251 977 l 373 977 l 354 671 l 476 671 l 495 977 l 617 977 m 338 427 l 460 427 l 469 549 l 347 549 l 338 427 z "},"$":{"ha":868,"x_min":68,"x_max":800,"o":"m 481 1 l 481 -50 l 543 -50 l 543 -172 l 481 -172 l 359 -111 l 359 7 q 258 38 309 16 q 129 122 178 73 l 68 122 l 68 244 l 200 244 q 281 157 220 189 q 434 122 345 122 l 462 122 q 498 124 481 123 q 579 137 545 127 q 678 244 678 165 q 583 367 678 323 q 485 401 546 385 q 430 416 463 408 l 401 422 l 373 430 q 163 507 227 467 q 68 671 68 567 q 159 892 68 812 q 359 972 234 958 l 359 1032 l 298 1032 l 298 1154 l 481 1154 l 481 974 q 610 939 545 966 q 739 854 690 904 l 800 854 l 739 732 l 678 732 q 625 793 663 763 q 549 836 591 820 q 434 854 497 854 l 421 854 q 406 854 413 854 q 370 852 387 854 q 289 831 323 846 q 190 671 190 789 q 216 613 190 637 q 286 575 239 592 q 383 547 320 562 l 410 541 l 438 535 q 495 522 473 527 q 705 436 637 486 q 800 244 800 366 q 777 155 800 197 q 709 76 753 110 q 481 1 621 11 z "},"%":{"ha":868,"x_min":68,"x_max":800,"o":"m 220 916 q 156 862 182 916 q 129 732 129 808 q 156 603 129 656 q 220 549 182 549 q 285 603 258 549 q 312 732 312 656 q 285 862 312 808 q 220 916 258 916 m 373 732 q 328 559 373 631 q 220 488 283 488 q 113 559 157 488 q 68 732 68 631 q 113 905 68 833 q 220 977 157 977 q 328 905 283 977 q 373 732 373 833 m 648 427 q 583 374 610 427 q 556 244 556 320 q 583 115 556 168 q 648 61 610 61 q 712 115 686 61 q 739 244 739 168 q 712 374 739 320 q 648 427 686 427 m 800 244 q 755 71 800 143 q 648 0 711 0 q 540 71 585 0 q 495 244 495 143 q 540 417 495 345 q 648 488 585 488 q 755 417 711 488 q 800 244 800 345 m 357 122 l 373 122 l 373 0 l 190 0 l 510 854 l 495 854 l 495 977 l 678 977 l 357 122 z "},"&":{"ha":1212,"x_min":68,"x_max":922,"o":"m 434 122 q 634 218 553 122 q 512 359 593 300 q 353 444 456 398 q 238 389 273 414 q 190 295 190 353 q 266 168 190 218 q 434 122 335 122 m 190 732 q 231 640 190 679 q 335 576 263 609 l 356 586 l 377 596 q 417 616 404 609 q 488 654 463 637 q 556 732 556 695 q 528 803 556 774 q 465 839 505 826 q 373 854 418 854 q 281 839 327 854 q 218 803 241 826 q 190 732 190 774 m 846 366 q 774 195 823 272 q 791 122 785 161 l 861 122 l 861 0 l 678 0 q 673 80 678 41 q 434 0 571 0 q 159 84 255 0 q 68 295 68 164 q 212 509 68 417 q 109 595 142 548 q 68 732 68 652 q 152 923 68 863 q 373 977 227 977 q 594 923 519 977 q 678 732 678 863 q 625 587 678 646 q 501 500 584 538 q 704 338 635 433 q 731 429 722 383 q 739 488 739 467 l 922 488 l 922 366 l 846 366 z "},"'":{"ha":320,"x_min":68,"x_max":252,"o":"m 225 949 q 252 885 252 924 q 160 671 252 849 q 68 885 68 848 q 95 949 68 924 q 160 977 121 977 q 225 949 199 977 z "},"(":{"ha":441,"x_min":68,"x_max":373,"o":"m 312 854 q 190 420 190 671 q 251 101 190 238 q 312 -14 281 32 l 373 -14 l 373 -136 l 251 -136 q 159 -29 205 -105 q 68 420 68 123 q 96 719 68 614 q 159 869 119 803 q 251 977 205 946 l 373 977 l 373 854 l 312 854 z "},")":{"ha":441,"x_min":68,"x_max":373,"o":"m 68 854 l 68 977 l 190 977 q 281 869 235 946 q 345 719 321 803 q 373 420 373 614 q 281 -29 373 123 q 190 -136 235 -105 l 68 -136 l 68 -14 l 129 -14 q 190 101 159 32 q 251 420 251 238 q 129 854 251 671 l 68 854 z "},"*":{"ha":624,"x_min":68,"x_max":556,"o":"m 373 977 l 373 824 l 434 916 l 556 854 l 434 732 l 556 610 l 434 549 l 373 641 l 373 488 l 251 488 l 251 641 l 190 549 l 68 610 l 190 732 l 68 854 l 190 916 l 251 824 l 251 977 l 373 977 z "},"+":{"ha":582,"x_min":68,"x_max":514,"o":"m 254 375 l 68 375 l 68 450 l 254 450 l 254 635 l 328 635 l 328 450 l 514 450 l 514 375 l 328 375 l 328 189 l 254 189 l 254 375 z "},",":{"ha":319,"x_min":68,"x_max":252,"o":"m 113 13 q 95 27 103 18 q 68 92 68 54 q 95 157 68 130 q 159 184 121 184 q 224 157 197 184 q 252 92 252 130 q 228 31 252 56 l 129 -122 l 68 -122 l 113 13 z "},"-":{"ha":582,"x_min":68,"x_max":514,"o":"m 68 375 l 68 450 l 514 450 l 514 375 l 68 375 z "},"­":{"ha":582,"x_min":68,"x_max":514,"o":"m 68 375 l 68 450 l 514 450 l 514 375 l 68 375 z "},".":{"ha":319,"x_min":68,"x_max":251,"o":"m 251 92 q 224 27 251 54 q 159 0 197 0 q 95 27 121 0 q 68 92 68 54 q 95 156 68 130 q 159 183 121 183 q 224 156 197 183 q 251 92 251 130 z "},"/":{"ha":563,"x_min":68,"x_max":495,"o":"m 495 977 l 190 0 l 68 0 l 373 977 l 495 977 z "},":":{"ha":319,"x_min":68,"x_max":251,"o":"m 251 315 q 224 250 251 277 q 159 223 197 223 q 95 250 121 223 q 68 315 68 277 q 95 379 68 353 q 159 406 121 406 q 224 379 197 406 q 251 315 251 353 m 251 633 q 224 569 251 595 q 159 542 197 542 q 95 569 121 542 q 68 633 68 595 q 95 698 68 671 q 159 725 121 725 q 224 698 197 725 q 251 633 251 671 z "},";":{"ha":319,"x_min":68,"x_max":252,"o":"m 251 633 q 224 569 251 595 q 159 542 197 542 q 95 569 121 542 q 68 633 68 595 q 95 698 68 671 q 159 725 121 725 q 224 698 197 725 q 251 633 251 671 m 113 235 q 95 250 103 241 q 68 315 68 277 q 95 379 68 353 q 159 406 121 406 q 224 379 197 406 q 252 315 252 353 q 228 253 252 279 l 129 100 l 68 100 l 113 235 z "},";":{"ha":319,"x_min":68,"x_max":252,"o":"m 251 633 q 224 569 251 595 q 159 542 197 542 q 95 569 121 542 q 68 633 68 595 q 95 698 68 671 q 159 725 121 725 q 224 698 197 725 q 251 633 251 671 m 113 235 q 95 250 103 241 q 68 315 68 277 q 95 379 68 353 q 159 406 121 406 q 224 379 197 406 q 252 315 252 353 q 228 253 252 279 l 129 100 l 68 100 l 113 235 z "},"<":{"ha":563,"x_min":68,"x_max":495,"o":"m 495 538 l 373 477 l 373 486 l 210 416 l 373 346 l 373 355 l 495 294 l 495 172 l 68 355 l 68 477 l 495 660 l 495 538 z "},"=":{"ha":582,"x_min":68,"x_max":514,"o":"m 68 523 l 514 523 l 514 448 l 68 448 l 68 523 m 68 374 l 514 374 l 514 300 l 68 300 l 68 374 z "},">":{"ha":563,"x_min":68,"x_max":495,"o":"m 68 660 l 495 477 l 495 355 l 68 172 l 68 294 l 190 355 l 190 346 l 353 416 l 190 486 l 190 477 l 68 538 l 68 660 z "},"?":{"ha":807,"x_min":68,"x_max":739,"o":"m 495 92 q 468 27 495 54 q 404 0 441 0 q 339 27 366 0 q 312 92 312 54 q 339 156 312 130 q 404 183 366 183 q 468 156 441 183 q 495 92 495 130 m 739 732 q 626 537 739 623 q 526 475 587 507 l 501 462 l 477 449 q 434 427 448 434 l 434 366 l 495 366 l 495 243 l 434 243 l 312 304 l 312 488 q 351 509 326 496 q 374 520 358 513 l 397 532 q 498 588 460 564 q 617 732 617 663 q 526 838 617 808 q 434 854 479 854 q 292 829 362 854 q 190 779 239 810 l 190 732 l 129 732 l 68 854 q 159 915 98 884 q 274 957 213 941 q 434 976 350 976 q 655 922 581 976 q 739 732 739 863 z "},"@":{"ha":1181,"x_min":68,"x_max":1113,"o":"m 555 627 q 430 575 482 627 q 378 450 378 523 q 430 323 378 376 q 555 272 482 272 q 681 323 629 272 q 733 450 733 376 l 733 627 l 555 627 m 1048 62 q 941 -3 1015 29 q 800 -48 877 -32 q 590 -68 703 -68 q 221 85 374 -68 q 68 454 68 237 q 221 823 68 671 q 590 977 374 977 q 960 823 807 977 q 1113 454 1113 671 q 1072 291 1113 372 q 975 178 1036 219 q 786 127 899 127 l 733 127 l 733 251 q 555 193 673 193 q 374 268 449 193 q 299 450 299 343 q 374 631 299 555 q 555 706 449 706 l 812 706 l 812 193 q 1018 323 959 193 q 1048 454 1048 389 q 913 777 1048 644 q 590 911 780 911 q 267 777 401 911 q 133 454 133 644 q 267 131 133 264 q 590 -3 401 -3 q 941 62 794 -3 q 1048 127 1015 95 l 1048 62 z "},"A":{"ha":990,"x_min":68,"x_max":922,"o":"m 556 977 l 876 122 l 922 122 l 922 0 l 739 0 l 739 122 l 754 122 l 686 305 l 304 305 l 235 122 l 251 122 l 251 0 l 68 0 l 68 122 l 113 122 l 388 854 l 312 854 l 373 977 l 556 977 m 350 427 l 640 427 l 495 814 l 350 427 z "},"B":{"ha":990,"x_min":68,"x_max":922,"o":"m 800 275 q 781 363 800 327 q 739 408 766 391 q 678 427 709 427 l 251 427 l 251 122 l 678 122 q 739 141 709 122 q 800 275 800 179 m 739 702 q 678 836 739 798 q 617 854 648 854 l 251 854 l 251 549 l 617 549 q 678 568 648 549 q 739 702 739 606 m 922 275 q 852 91 922 169 q 678 2 782 13 l 678 0 l 68 0 l 68 122 l 129 122 l 129 854 l 68 854 l 129 977 l 617 977 q 791 886 721 964 q 861 702 861 808 q 785 512 861 592 q 884 414 848 476 q 922 275 922 349 z "},"C":{"ha":929,"x_min":68,"x_max":922,"o":"m 800 732 l 800 761 q 556 854 696 854 l 547 854 q 297 747 401 850 q 190 488 190 640 q 297 229 190 336 q 547 122 401 126 l 556 122 q 800 216 696 122 l 861 244 l 922 244 l 922 122 l 879 122 q 557 0 741 0 l 542 0 q 211 143 348 6 q 68 488 68 286 q 211 833 68 690 q 542 977 348 970 l 557 977 q 879 854 741 977 l 922 854 l 861 732 l 800 732 z "},"D":{"ha":1051,"x_min":68,"x_max":983,"o":"m 861 488 q 754 747 861 640 q 495 854 647 854 l 251 854 l 251 122 l 495 122 q 754 229 647 122 q 861 488 861 336 m 495 977 q 840 833 697 977 q 983 488 983 690 q 840 143 983 286 q 495 0 697 0 l 68 0 l 68 122 l 129 122 l 129 854 l 68 854 l 129 977 l 495 977 z "},"E":{"ha":868,"x_min":68,"x_max":800,"o":"m 800 977 l 800 793 l 678 793 l 678 854 l 251 854 l 251 549 l 678 549 l 678 427 l 251 427 l 251 122 l 678 122 l 678 183 l 800 183 l 800 0 l 68 0 l 68 122 l 129 122 l 129 854 l 68 854 l 129 977 l 800 977 z "},"F":{"ha":868,"x_min":68,"x_max":800,"o":"m 800 977 l 800 793 l 678 793 l 678 854 l 251 854 l 251 549 l 678 549 l 678 427 l 251 427 l 251 122 l 312 122 l 312 0 l 68 0 l 68 122 l 129 122 l 129 854 l 68 854 l 129 977 l 800 977 z "},"G":{"ha":990,"x_min":68,"x_max":922,"o":"m 800 732 l 800 762 q 558 854 696 854 l 547 854 q 297 747 401 851 q 190 488 190 640 q 297 229 190 337 q 547 123 401 126 l 558 123 q 800 216 696 123 l 800 427 l 556 427 l 556 549 l 922 549 l 922 0 l 800 0 l 800 66 q 559 0 687 0 q 496 4 528 0 q 211 143 330 24 q 68 488 68 286 q 211 833 68 691 q 542 977 348 971 l 557 977 q 879 854 741 977 l 922 854 l 861 732 l 800 732 z "},"H":{"ha":929,"x_min":68,"x_max":861,"o":"m 861 977 l 861 854 l 800 854 l 800 122 l 861 122 l 861 0 l 617 0 l 617 122 l 678 122 l 678 427 l 251 427 l 251 122 l 312 122 l 312 0 l 68 0 l 68 122 l 129 122 l 129 854 l 68 854 l 115 977 l 312 977 l 312 854 l 251 854 l 251 549 l 678 549 l 678 854 l 604 854 l 604 977 l 861 977 z "},"I":{"ha":380,"x_min":68,"x_max":312,"o":"m 312 977 l 312 854 l 251 854 l 251 122 l 312 122 l 312 0 l 68 0 l 68 122 l 129 122 l 129 854 l 68 854 l 129 977 l 312 977 z "},"J":{"ha":746,"x_min":68,"x_max":678,"o":"m 190 183 l 190 136 q 312 122 245 122 q 418 151 375 122 q 472 214 452 174 q 495 305 495 259 l 495 854 l 434 854 l 495 977 l 678 977 l 678 854 l 617 854 l 617 305 q 579 153 617 229 q 312 0 503 0 q 172 16 239 0 q 68 61 100 33 l 68 183 l 190 183 z "},"K":{"ha":807,"x_min":68,"x_max":739,"o":"m 739 977 l 739 854 l 663 854 l 396 488 l 663 122 l 739 122 l 739 0 l 495 0 l 495 122 l 541 122 l 312 427 l 251 427 l 251 122 l 312 122 l 312 0 l 68 0 l 68 122 l 129 122 l 129 854 l 68 854 l 129 977 l 373 977 l 373 854 l 251 854 l 251 549 l 312 549 l 541 854 l 495 854 l 495 977 l 739 977 z "},"L":{"ha":746,"x_min":68,"x_max":678,"o":"m 312 977 l 312 854 l 251 854 l 251 122 l 556 122 l 556 184 l 678 184 l 678 0 l 68 0 l 68 122 l 129 122 l 129 854 l 68 854 l 129 977 l 312 977 z "},"M":{"ha":990,"x_min":68,"x_max":922,"o":"m 922 977 l 861 854 l 861 122 l 922 122 l 922 0 l 678 0 l 678 122 l 739 122 l 739 732 l 556 366 l 434 366 l 251 732 l 251 122 l 312 122 l 312 0 l 68 0 l 68 122 l 129 122 l 129 854 l 68 854 l 129 977 l 251 977 l 495 488 l 739 977 l 922 977 z "},"N":{"ha":868,"x_min":68,"x_max":800,"o":"m 800 977 l 739 854 l 739 122 l 800 122 l 800 0 l 617 0 l 251 732 l 251 122 l 312 122 l 312 0 l 68 0 l 68 122 l 129 122 l 129 854 l 68 854 l 129 977 l 251 977 l 622 235 l 622 977 l 800 977 z "},"O":{"ha":1112,"x_min":68,"x_max":1044,"o":"m 556 854 q 297 747 404 854 q 190 488 190 640 q 297 229 190 336 q 556 122 404 122 q 815 229 708 122 q 922 488 922 336 q 815 747 922 640 q 556 854 708 854 m 1044 488 q 901 143 1044 286 q 556 0 758 0 q 211 143 354 0 q 68 488 68 286 q 211 833 68 690 q 556 977 354 977 q 901 833 758 977 q 1044 488 1044 690 z "},"P":{"ha":930,"x_min":68,"x_max":863,"o":"m 741 702 q 722 790 741 754 q 680 836 707 819 q 618 854 649 854 l 252 854 l 252 549 l 618 549 q 680 568 649 549 q 722 614 707 585 q 741 702 741 650 m 863 702 q 792 517 863 596 q 618 427 722 439 l 252 427 l 252 122 l 313 122 l 313 0 l 68 0 l 68 122 l 130 122 l 130 854 l 69 854 l 130 977 l 618 977 q 792 886 722 965 q 863 702 863 808 z "},"Q":{"ha":1112,"x_min":68,"x_max":1044,"o":"m 190 488 q 297 229 190 336 q 556 122 404 122 q 815 229 708 122 q 922 488 922 336 q 815 747 922 640 q 556 854 708 854 q 297 747 404 854 q 190 488 190 640 m 1044 488 q 981 249 1044 360 q 816 75 921 141 l 861 -61 l 739 -61 l 711 25 q 556 0 635 0 q 211 143 354 0 q 68 488 68 286 q 211 833 68 690 q 556 977 354 977 q 901 833 758 977 q 1044 488 1044 690 z "},"R":{"ha":923,"x_min":68,"x_max":923,"o":"m 618 549 q 680 568 649 549 q 722 614 707 585 q 741 702 741 650 q 722 790 741 754 q 680 836 707 819 q 618 854 649 854 l 252 854 l 252 549 l 618 549 m 923 122 l 923 0 l 679 0 l 679 122 l 747 122 l 551 427 l 252 427 l 252 122 l 313 122 l 313 0 l 68 0 l 68 122 l 130 122 l 130 854 l 69 854 l 130 977 l 618 977 q 792 886 722 965 q 863 702 863 808 q 808 536 863 610 q 668 437 753 464 l 869 122 l 923 122 z "},"S":{"ha":868,"x_min":68,"x_max":800,"o":"m 421 854 q 406 854 413 854 q 370 852 387 854 q 289 831 323 846 q 190 671 190 789 q 216 613 190 637 q 286 575 239 592 q 383 547 320 562 l 410 541 l 438 535 q 495 522 473 527 q 705 436 637 486 q 800 244 800 366 q 777 155 800 197 q 709 76 753 110 q 434 0 607 0 q 258 38 347 0 q 129 122 178 73 l 68 122 l 68 244 l 200 244 q 281 157 220 189 q 434 122 345 122 l 462 122 q 498 124 481 123 q 579 137 545 127 q 678 244 678 165 q 583 367 678 323 q 485 401 546 385 q 430 416 463 408 l 401 422 l 373 430 q 163 507 227 467 q 68 671 68 567 q 159 892 68 812 q 434 977 255 977 q 610 939 520 977 q 739 854 690 904 l 800 854 l 739 732 l 678 732 q 625 793 663 763 q 549 836 591 820 q 434 854 497 854 l 421 854 z "},"T":{"ha":869,"x_min":68,"x_max":801,"o":"m 801 977 l 800 793 l 678 793 l 678 854 l 495 854 l 495 122 l 556 122 l 556 0 l 312 0 l 312 122 l 373 122 l 373 854 l 190 854 l 190 793 l 68 793 l 68 977 l 801 977 z "},"U":{"ha":868,"x_min":68,"x_max":800,"o":"m 800 977 l 800 854 l 739 854 l 739 300 q 703 153 739 226 q 434 0 629 0 q 167 153 243 0 q 129 305 129 229 l 129 854 l 68 854 l 129 977 l 312 977 l 312 854 l 251 854 l 251 305 q 274 214 251 260 q 434 122 319 122 q 540 151 497 122 q 594 214 574 174 q 617 305 617 259 l 617 854 l 556 854 l 556 977 l 800 977 z "},"V":{"ha":868,"x_min":68,"x_max":800,"o":"m 800 977 l 800 854 l 762 854 l 495 0 l 373 0 l 106 854 l 68 854 l 129 977 l 251 977 l 251 854 l 228 854 l 434 195 l 640 854 l 617 854 l 617 977 l 800 977 z "},"W":{"ha":1417,"x_min":68,"x_max":1350,"o":"m 1350 977 l 1350 854 l 1312 854 l 1044 0 l 922 0 l 709 684 l 495 0 l 373 0 l 106 854 l 68 854 l 129 977 l 251 977 l 251 854 l 228 854 l 434 195 l 640 854 l 617 854 l 617 977 l 800 977 l 800 854 l 777 854 l 983 195 l 1190 854 l 1166 854 l 1166 977 l 1350 977 z "},"X":{"ha":868,"x_min":68,"x_max":800,"o":"m 800 977 l 800 854 l 724 854 l 495 488 l 724 122 l 800 122 l 800 0 l 617 0 l 617 98 l 434 391 l 251 98 l 251 0 l 68 0 l 68 122 l 144 122 l 373 488 l 144 854 l 68 854 l 129 977 l 251 977 l 251 879 l 434 586 l 617 879 l 617 977 l 800 977 z "},"Y":{"ha":868,"x_min":68,"x_max":800,"o":"m 800 977 l 800 854 l 732 854 l 495 427 l 495 122 l 556 122 l 556 0 l 312 0 l 312 122 l 373 122 l 373 427 l 136 854 l 68 854 l 129 977 l 312 977 l 312 854 l 258 854 l 434 537 l 610 854 l 556 854 l 556 977 l 800 977 z "},"Z":{"ha":746,"x_min":68,"x_max":678,"o":"m 678 977 l 678 854 l 190 122 l 556 122 l 617 183 l 678 183 l 678 0 l 68 0 l 68 122 l 556 854 l 190 854 l 129 793 l 68 793 l 68 977 l 678 977 z "},"[":{"ha":441,"x_min":68,"x_max":373,"o":"m 373 977 l 373 916 l 312 793 l 251 793 l 251 854 l 190 854 l 190 -14 l 251 -14 l 251 47 l 373 47 l 373 -136 l 68 -136 l 68 977 l 373 977 z "},"\\":{"ha":563,"x_min":68,"x_max":495,"o":"m 190 977 l 495 0 l 373 0 l 68 977 l 190 977 z "},"]":{"ha":441,"x_min":68,"x_max":373,"o":"m 68 -136 l 68 -75 l 129 47 l 190 47 l 190 -14 l 251 -14 l 251 854 l 190 854 l 190 793 l 68 793 l 68 977 l 373 977 l 373 -136 l 68 -136 z "},"^":{"ha":563,"x_min":37,"x_max":526,"o":"m 404 387 l 342 509 l 351 509 l 281 671 l 212 509 l 220 509 l 159 387 l 37 387 l 220 814 l 342 814 l 526 387 l 404 387 z "},"_":{"ha":745,"x_min":68,"x_max":677,"o":"m 68 -47 l 68 28 l 677 28 l 677 -47 l 68 -47 z "},"`":{"ha":380,"x_min":68,"x_max":312,"o":"m 190 1065 l 312 882 l 190 882 l 68 1004 l 190 1065 z "},"a":{"ha":990,"x_min":68,"x_max":922,"o":"m 465 122 q 659 203 578 122 q 739 397 739 283 q 659 591 739 511 q 465 671 578 671 q 271 591 351 671 q 190 397 190 511 q 271 203 190 283 q 465 122 351 122 m 861 122 l 922 122 l 922 0 l 739 0 l 739 111 q 465 0 624 0 q 184 116 300 0 q 68 397 68 233 q 184 677 68 561 q 465 793 300 793 q 739 683 624 793 l 800 793 l 922 793 l 922 671 l 861 671 l 861 122 z "},"b":{"ha":990,"x_min":68,"x_max":922,"o":"m 526 122 q 720 203 640 122 q 800 397 800 283 q 720 591 800 511 q 526 671 640 671 q 332 591 412 671 q 251 397 251 511 q 332 203 251 283 q 526 122 412 122 m 526 793 q 806 677 690 793 q 922 397 922 561 q 806 116 922 233 q 526 0 690 0 q 251 111 366 0 l 251 0 l 68 0 l 68 122 l 129 122 l 129 854 l 68 854 l 129 977 l 251 977 l 251 683 q 526 793 366 793 z "},"c":{"ha":807,"x_min":68,"x_max":739,"o":"m 617 241 l 739 241 l 739 119 q 462 0 623 3 l 456 0 q 184 113 298 0 q 68 394 68 229 q 184 674 68 558 q 454 787 297 787 l 462 787 q 739 669 623 785 l 678 547 l 617 547 l 617 622 q 466 669 548 669 q 439 667 452 669 q 271 588 340 659 q 190 394 190 507 q 271 199 190 280 q 439 120 340 130 q 466 119 452 119 q 617 165 548 119 l 617 241 z "},"d":{"ha":990,"x_min":68,"x_max":922,"o":"m 465 122 q 659 203 578 122 q 739 397 739 283 q 659 591 739 511 q 465 671 578 671 q 271 591 351 671 q 190 397 190 511 q 271 203 190 283 q 465 122 351 122 m 861 122 l 922 122 l 922 0 l 739 0 l 739 111 q 465 0 624 0 q 184 116 300 0 q 68 397 68 233 q 184 677 68 561 q 465 793 300 793 q 739 683 624 793 l 739 854 l 800 977 l 922 977 l 922 854 l 861 854 l 861 122 z "},"e":{"ha":929,"x_min":68,"x_max":861,"o":"m 739 488 q 640 623 718 572 q 465 671 565 671 q 304 620 376 671 q 205 488 234 570 l 739 488 m 861 366 l 192 366 q 281 193 203 262 q 465 122 359 122 q 678 244 587 122 l 800 244 l 800 122 l 739 122 q 465 0 622 0 q 184 116 300 0 q 68 397 68 233 q 184 677 68 561 q 465 793 300 793 q 766 679 658 793 q 861 427 861 578 l 861 366 z "},"f":{"ha":746,"x_min":68,"x_max":678,"o":"m 556 916 l 556 963 q 434 977 500 977 q 328 948 371 977 q 274 885 294 925 q 251 793 251 839 l 251 671 l 610 671 l 610 549 l 251 549 l 251 122 l 312 122 l 312 0 l 68 0 l 68 122 l 129 122 l 129 549 l 68 549 l 68 671 l 129 671 l 129 793 q 167 946 129 869 q 258 1051 200 1013 q 434 1099 329 1099 q 574 1082 507 1099 q 678 1038 646 1065 l 617 916 l 556 916 z "},"g":{"ha":990,"x_min":68,"x_max":922,"o":"m 465 122 q 659 203 578 122 q 739 397 739 283 q 659 591 739 511 q 465 671 578 671 q 271 591 351 671 q 190 397 190 511 q 271 203 190 283 q 465 122 351 122 m 922 793 l 922 671 l 861 671 l 861 0 q 815 -153 861 -76 q 495 -305 724 -305 q 264 -245 354 -305 q 159 -122 194 -199 l 129 -122 l 129 0 l 251 0 q 281 -92 251 -45 q 495 -183 342 -183 q 709 -92 648 -183 q 739 0 739 -45 l 739 111 q 465 0 624 0 q 184 116 300 0 q 68 397 68 233 q 184 677 68 561 q 465 793 300 793 q 739 683 624 793 l 800 793 l 922 793 z "},"h":{"ha":1051,"x_min":68,"x_max":983,"o":"m 983 122 l 983 0 l 739 0 l 739 122 l 800 122 l 800 397 q 720 591 800 511 q 526 671 640 671 q 332 591 412 671 q 251 397 251 511 l 251 122 l 312 122 l 312 0 l 68 0 l 68 122 l 129 122 l 129 916 l 68 916 l 129 1038 l 251 1038 l 251 683 q 526 793 366 793 q 806 677 690 793 q 922 397 922 561 l 922 122 l 983 122 z "},"i":{"ha":380,"x_min":68,"x_max":312,"o":"m 312 793 l 312 671 l 251 671 l 251 122 l 312 122 l 312 0 l 68 0 l 68 122 l 129 122 l 129 732 l 312 793 m 300 978 q 273 913 300 940 q 209 886 247 886 q 144 913 171 886 q 117 978 117 940 q 144 1042 117 1016 q 209 1069 171 1069 q 273 1042 247 1069 q 300 978 300 1016 z "},"j":{"ha":746,"x_min":68,"x_max":678,"o":"m 190 183 l 190 136 q 312 122 245 122 q 418 151 375 122 q 472 214 452 174 q 495 305 495 259 l 495 671 l 678 793 l 678 671 l 617 671 l 617 305 q 579 153 617 229 q 312 0 503 0 q 172 16 239 0 q 68 61 100 33 l 68 183 l 190 183 m 648 978 q 621 913 648 940 q 556 886 594 886 q 492 913 518 886 q 465 978 465 940 q 492 1042 465 1016 q 556 1069 518 1069 q 621 1042 594 1069 q 648 978 648 1016 z "},"k":{"ha":685,"x_min":68,"x_max":617,"o":"m 312 977 l 312 854 l 251 854 l 251 427 l 312 427 l 556 793 l 617 793 l 617 671 l 598 671 l 399 366 l 585 122 l 617 122 l 617 0 l 556 0 l 312 305 l 251 305 l 251 122 l 312 122 l 312 0 l 68 0 l 68 122 l 129 122 l 129 854 l 68 854 l 129 977 l 312 977 z "},"l":{"ha":380,"x_min":68,"x_max":312,"o":"m 312 977 l 312 854 l 251 854 l 251 122 l 312 122 l 312 0 l 129 0 l 129 854 l 68 854 l 129 977 l 312 977 z "},"m":{"ha":1723,"x_min":68,"x_max":1655,"o":"m 1655 122 l 1655 0 l 1411 0 l 1411 122 l 1472 122 l 1472 397 q 1391 591 1472 511 q 1197 671 1311 671 q 1003 591 1083 671 q 922 397 922 511 l 922 122 l 983 122 l 983 0 l 739 0 l 739 122 l 800 122 l 800 397 q 720 591 800 511 q 526 671 640 671 q 332 591 412 671 q 251 397 251 511 l 251 122 l 312 122 l 312 0 l 68 0 l 68 122 l 129 122 l 129 671 l 68 671 l 129 793 l 251 793 l 251 683 q 526 793 366 793 q 720 743 630 793 q 861 608 808 693 q 1002 743 915 693 q 1197 793 1093 793 q 1478 677 1361 793 q 1594 397 1594 561 l 1594 122 l 1655 122 z "},"n":{"ha":1051,"x_min":68,"x_max":983,"o":"m 983 122 l 983 0 l 739 0 l 739 122 l 800 122 l 800 397 q 720 591 800 511 q 526 671 640 671 q 332 591 412 671 q 251 397 251 511 l 251 122 l 312 122 l 312 0 l 68 0 l 68 122 l 129 122 l 129 671 l 68 671 l 129 793 l 251 793 l 251 683 q 526 793 366 793 q 806 677 690 793 q 922 397 922 561 l 922 122 l 983 122 z "},"o":{"ha":929,"x_min":68,"x_max":861,"o":"m 465 671 q 271 591 351 671 q 190 397 190 511 q 271 203 190 283 q 465 122 351 122 q 659 203 578 122 q 739 397 739 283 q 659 591 739 511 q 465 671 578 671 m 861 397 q 745 116 861 233 q 465 0 629 0 q 184 116 300 0 q 68 397 68 233 q 184 677 68 561 q 465 793 300 793 q 745 677 629 793 q 861 397 861 561 z "},"p":{"ha":990,"x_min":68,"x_max":922,"o":"m 526 671 q 332 591 412 671 q 251 397 251 511 q 332 203 251 283 q 526 122 412 122 q 720 203 640 122 q 800 397 800 283 q 720 591 800 511 q 526 671 640 671 m 526 0 q 251 111 366 0 l 251 -183 l 68 -183 l 68 -61 l 129 -61 l 129 671 l 68 671 l 129 793 l 251 793 l 251 683 q 526 793 366 793 q 806 677 690 793 q 922 397 922 561 q 806 116 922 233 q 526 0 690 0 z "},"q":{"ha":990,"x_min":68,"x_max":922,"o":"m 465 671 q 271 591 351 671 q 190 397 190 511 q 271 203 190 283 q 465 122 351 122 q 659 203 578 122 q 739 397 739 283 q 659 591 739 511 q 465 671 578 671 m 465 0 q 184 116 300 0 q 68 397 68 233 q 184 677 68 561 q 465 793 300 793 q 739 683 624 793 l 800 793 l 922 793 l 922 671 l 861 671 l 861 -61 l 922 -61 l 922 -183 l 739 -183 l 739 111 q 465 0 624 0 z "},"r":{"ha":746,"x_min":68,"x_max":678,"o":"m 434 793 q 574 777 507 793 q 678 732 646 760 l 678 610 l 556 610 l 556 658 q 434 671 500 671 q 274 580 319 671 q 251 488 251 534 l 251 122 l 312 122 l 312 0 l 68 0 l 68 122 l 129 122 l 129 671 l 190 793 l 251 793 l 251 741 q 434 793 324 793 z "},"s":{"ha":746,"x_min":68,"x_max":678,"o":"m 348 671 q 319 669 332 671 q 258 656 283 666 q 190 549 190 629 q 267 484 190 510 q 345 463 294 475 l 366 458 l 389 453 l 434 442 q 602 378 547 414 q 678 244 678 327 q 589 59 678 123 q 373 0 507 0 q 235 33 300 0 q 129 122 172 66 l 68 122 l 68 244 l 200 244 q 267 157 220 190 q 373 122 314 122 q 503 145 460 122 q 556 244 556 174 q 479 309 556 283 q 401 330 452 318 l 380 335 l 357 340 l 312 351 q 144 416 199 379 q 68 549 68 467 q 152 717 68 645 q 373 793 241 793 q 524 755 457 793 q 617 671 577 725 l 678 671 l 617 549 l 556 549 q 533 610 556 580 q 373 671 488 671 l 348 671 z "},"t":{"ha":746,"x_min":68,"x_max":678,"o":"m 678 183 l 678 61 q 574 16 646 33 q 434 0 507 0 q 167 153 243 0 q 129 305 129 229 l 129 610 l 68 610 l 68 732 l 129 732 l 129 916 l 251 977 l 251 732 l 617 732 l 617 610 l 251 610 l 251 305 q 274 214 251 259 q 328 151 294 174 q 434 122 371 122 q 556 136 500 122 l 556 183 l 678 183 z "},"u":{"ha":1051,"x_min":68,"x_max":983,"o":"m 68 671 l 129 793 l 312 793 l 312 671 l 251 671 l 251 397 q 332 203 251 283 q 526 122 412 122 q 720 203 640 122 q 800 397 800 283 l 800 671 l 739 671 l 739 793 l 983 793 l 983 671 l 922 671 l 922 122 l 983 122 l 922 0 l 800 0 l 800 111 q 526 0 685 0 q 245 116 361 0 q 129 397 129 233 l 129 671 l 68 671 z "},"v":{"ha":868,"x_min":68,"x_max":800,"o":"m 800 793 l 800 671 l 753 671 l 495 0 l 373 0 l 115 671 l 68 671 l 129 793 l 251 793 l 251 671 l 237 671 l 434 159 l 631 671 l 617 671 l 617 793 l 800 793 z "},"w":{"ha":1417,"x_min":68,"x_max":1350,"o":"m 1350 793 l 1350 671 l 1303 671 l 1044 0 l 922 0 l 709 555 l 495 0 l 373 0 l 115 671 l 68 671 l 129 793 l 251 793 l 251 671 l 237 671 l 434 159 l 631 671 l 617 671 l 617 793 l 800 793 l 800 671 l 786 671 l 983 159 l 1181 671 l 1166 671 l 1166 793 l 1350 793 z "},"x":{"ha":746,"x_min":68,"x_max":678,"o":"m 678 793 l 678 671 l 603 671 l 434 397 l 603 122 l 678 122 l 678 0 l 495 0 l 495 99 l 373 298 l 251 99 l 251 0 l 68 0 l 68 122 l 143 122 l 312 397 l 143 671 l 68 671 l 129 793 l 251 793 l 251 694 l 373 496 l 495 694 l 495 793 l 678 793 z "},"y":{"ha":1051,"x_min":68,"x_max":983,"o":"m 800 0 l 800 111 q 526 0 685 0 q 245 116 361 0 q 129 397 129 233 l 129 671 l 68 671 l 129 793 l 312 793 l 312 671 l 251 671 l 251 397 q 332 203 251 283 q 526 122 412 122 q 720 203 640 122 q 800 397 800 283 l 800 671 l 739 671 l 739 793 l 983 793 l 983 671 l 922 671 l 922 0 q 876 -151 922 -75 q 556 -304 785 -304 q 325 -244 415 -304 q 220 -121 255 -198 l 190 -121 l 190 1 l 312 1 q 342 -90 312 -44 q 556 -182 404 -182 q 770 -90 709 -182 q 800 0 800 -45 z "},"z":{"ha":807,"x_min":68,"x_max":739,"o":"m 739 793 l 739 671 l 251 122 l 617 122 l 739 183 l 739 0 l 68 0 l 68 122 l 556 671 l 190 671 l 68 610 l 68 793 l 739 793 z "},"{":{"ha":502,"x_min":68,"x_max":434,"o":"m 251 -14 l 312 -14 l 312 47 l 434 47 l 434 -136 l 251 -136 q 190 -121 220 -136 q 129 -14 129 -90 l 129 285 q 98 338 129 323 q 68 346 83 346 l 68 468 q 103 477 89 468 q 121 498 115 485 q 129 529 129 513 l 129 854 q 190 961 129 930 q 251 977 220 977 l 434 977 l 434 916 l 373 726 l 312 726 l 312 854 l 251 854 l 251 529 q 241 458 251 487 q 220 422 234 435 q 190 407 205 407 q 220 391 205 407 q 241 355 234 378 q 251 285 251 327 l 251 -14 z "},"|":{"ha":380,"x_min":129,"x_max":251,"o":"m 251 977 l 251 -136 l 129 -136 l 129 977 l 251 977 z "},"}":{"ha":502,"x_min":68,"x_max":434,"o":"m 251 854 l 190 854 l 190 793 l 68 793 l 68 977 l 251 977 q 312 961 281 977 q 373 854 373 930 l 373 556 q 404 503 373 518 q 434 495 419 495 l 434 373 q 399 363 413 373 q 380 342 387 356 q 373 312 373 327 l 373 -14 q 312 -121 373 -90 q 251 -136 281 -136 l 68 -136 l 68 -75 l 129 115 l 190 115 l 190 -14 l 251 -14 l 251 312 q 260 382 251 354 q 281 418 268 406 q 312 434 297 434 q 281 449 297 434 q 260 486 268 463 q 251 556 251 514 l 251 854 z "},"~":{"ha":793,"x_min":68,"x_max":726,"o":"m 726 507 q 593 416 663 435 q 541 409 567 409 q 418 439 484 409 q 294 477 353 469 q 224 467 258 477 q 150 412 168 453 l 68 515 q 202 604 131 578 q 258 611 227 611 q 377 582 313 611 q 499 545 441 553 q 569 554 536 545 q 644 610 625 570 l 726 507 z "},"¡":{"ha":380,"x_min":68,"x_max":312,"o":"m 129 -244 l 129 366 l 68 366 l 68 488 l 129 488 l 251 427 l 251 -122 l 312 -122 l 312 -244 l 129 -244 m 68 702 q 95 766 68 740 q 159 793 121 793 q 224 766 197 793 q 251 702 251 740 q 224 637 251 664 q 159 610 197 610 q 95 637 121 610 q 68 702 68 664 z "},"¢":{"ha":807,"x_min":68,"x_max":739,"o":"m 374 134 q 439 120 405 123 q 466 119 452 119 q 617 165 548 119 l 617 241 l 739 241 l 739 119 q 462 0 623 3 l 456 0 q 338 18 394 0 l 312 -66 l 190 -66 l 233 71 q 184 113 208 90 q 68 394 68 229 q 184 674 68 558 q 454 787 297 787 l 456 787 l 495 910 l 617 910 l 574 770 q 739 669 665 743 l 678 547 l 617 547 l 617 622 q 538 659 580 647 l 374 134 m 418 665 q 271 588 333 651 q 190 394 190 507 q 271 199 190 280 q 273 197 271 199 l 418 665 z "},"£":{"ha":766,"x_min":0,"x_max":699,"o":"m 637 155 l 637 183 l 699 183 l 699 68 q 530 0 618 0 q 417 27 470 0 q 294 54 363 54 q 189 -1 236 54 l 68 120 q 170 339 170 221 q 119 525 170 398 q 68 727 68 651 q 366 972 68 972 q 690 745 607 972 l 690 684 l 568 684 l 568 721 q 370 867 492 867 q 201 715 201 867 q 249 506 201 625 q 298 330 298 387 q 210 136 298 224 q 323 165 264 165 q 422 142 372 165 q 533 119 472 119 q 637 155 597 119 m 0 439 l 0 545 l 486 545 l 486 439 l 0 439 z "},"¥":{"ha":758,"x_min":68,"x_max":690,"o":"m 431 322 l 431 122 l 483 122 l 483 0 l 275 0 l 275 122 l 328 122 l 328 322 l 75 322 l 75 397 l 328 397 l 328 427 l 307 471 l 75 471 l 75 546 l 271 546 l 125 854 l 68 854 l 120 977 l 275 977 l 275 854 l 229 854 l 375 546 l 383 546 l 529 854 l 483 854 l 483 977 l 690 977 l 690 854 l 633 854 l 488 546 l 684 546 l 684 471 l 452 471 l 431 427 l 431 397 l 684 397 l 684 322 l 431 322 z "},"¦":{"ha":380,"x_min":129,"x_max":251,"o":"m 251 977 l 251 498 l 129 498 l 129 977 l 251 977 m 251 295 l 251 -183 l 129 -183 l 129 295 l 251 295 z "},"¨":{"ha":597,"x_min":68,"x_max":529,"o":"m 251 994 q 224 929 251 956 q 159 902 197 902 q 95 929 121 902 q 68 994 68 956 q 95 1058 68 1031 q 159 1085 121 1085 q 224 1058 197 1085 q 251 994 251 1031 m 529 994 q 502 929 529 956 q 437 902 475 902 q 373 929 399 902 q 346 994 346 956 q 373 1058 346 1031 q 437 1085 399 1085 q 502 1058 475 1085 q 529 994 529 1031 z "},"©":{"ha":888,"x_min":68,"x_max":821,"o":"m 444 800 q 236 713 321 800 q 149 505 149 627 q 236 296 149 382 q 444 210 321 210 q 652 296 567 210 q 739 505 739 382 q 652 713 739 627 q 444 800 567 800 m 821 505 q 711 238 821 349 q 444 128 600 128 q 178 238 288 128 q 68 505 68 349 q 178 771 68 661 q 444 881 288 881 q 711 771 600 881 q 821 505 821 661 m 544 416 l 617 416 l 617 343 q 451 271 547 273 l 448 271 q 284 340 352 271 q 214 508 214 409 q 284 676 214 606 q 446 744 352 744 l 451 744 q 617 673 547 743 l 581 600 l 544 600 l 544 645 q 453 673 503 673 q 437 672 445 673 q 336 625 378 667 q 288 508 288 576 q 336 391 288 439 q 437 344 378 349 q 453 342 445 342 q 544 371 503 342 l 544 416 z "},"ª":{"ha":700,"x_min":68,"x_max":632,"o":"m 330 574 q 458 622 405 574 q 511 739 511 670 q 458 855 511 807 q 330 903 405 903 q 202 855 254 903 q 148 739 148 807 q 202 622 148 670 q 330 574 254 574 m 591 574 l 632 574 l 632 500 l 511 500 l 511 567 q 330 500 435 500 q 144 570 221 500 q 68 739 68 640 q 144 907 68 837 q 330 977 221 977 q 511 910 435 977 l 551 977 l 632 977 l 632 903 l 591 903 l 591 574 m 197 351 l 197 426 l 502 426 l 502 351 l 197 351 z "},"«":{"ha":524,"x_min":68,"x_max":456,"o":"m 275 512 l 233 437 l 233 448 l 150 353 l 233 279 l 233 290 l 275 216 l 275 67 l 68 290 l 68 437 l 275 660 l 275 512 m 456 512 l 414 437 l 414 448 l 332 353 l 414 279 l 414 290 l 456 216 l 456 67 l 250 290 l 250 437 l 456 660 l 456 512 z "},"¬":{"ha":838,"x_min":68,"x_max":770,"o":"m 136 698 l 190 698 l 190 637 l 648 637 l 648 698 l 770 698 l 770 242 l 587 242 l 587 364 l 648 364 l 648 515 l 190 515 l 190 454 l 68 454 l 68 604 l 136 698 z "},"®":{"ha":888,"x_min":68,"x_max":821,"o":"m 444 800 q 236 713 321 800 q 149 505 149 627 q 236 296 149 382 q 444 210 321 210 q 652 296 567 210 q 739 505 739 382 q 652 713 739 627 q 444 800 567 800 m 821 505 q 711 238 821 349 q 444 128 600 128 q 178 238 288 128 q 68 505 68 349 q 178 771 68 661 q 444 881 288 881 q 711 771 600 881 q 821 505 821 661 m 504 545 q 532 553 518 545 q 551 574 545 561 q 559 614 559 590 q 551 654 559 638 q 532 675 545 667 q 504 684 518 684 l 336 684 l 336 545 l 504 545 m 643 349 l 643 293 l 532 293 l 532 349 l 563 349 l 473 488 l 336 488 l 336 349 l 364 349 l 364 293 l 252 293 l 252 349 l 281 349 l 281 684 l 253 684 l 281 739 l 504 739 q 583 699 551 734 q 616 614 616 663 q 591 538 616 572 q 527 493 566 505 l 618 349 l 643 349 z "},"¯":{"ha":582,"x_min":68,"x_max":514,"o":"m 68 960 l 68 1034 l 514 1034 l 514 960 l 68 960 z "},"°":{"ha":437,"x_min":68,"x_max":370,"o":"m 309 934 q 281 996 309 970 q 219 1023 256 1023 q 156 996 182 1023 q 129 934 129 970 q 156 871 129 897 q 219 844 182 844 q 281 871 256 844 q 309 934 309 897 m 370 934 q 325 827 370 871 q 219 783 281 783 q 113 827 156 783 q 68 934 68 871 q 113 1040 68 996 q 219 1084 156 1084 q 325 1040 281 1084 q 370 934 370 996 z "},"±":{"ha":582,"x_min":68,"x_max":514,"o":"m 254 375 l 68 375 l 68 450 l 254 450 l 254 635 l 328 635 l 328 450 l 514 450 l 514 375 l 328 375 l 328 189 l 254 189 l 254 375 m 68 0 l 68 75 l 514 75 l 514 0 l 68 0 z "},"´":{"ha":380,"x_min":68,"x_max":312,"o":"m 312 1004 l 190 882 l 68 882 l 190 1065 l 312 1004 z "},"µ":{"ha":1051,"x_min":68,"x_max":983,"o":"m 129 671 l 68 671 l 129 793 l 312 793 l 312 671 l 251 671 l 251 397 q 332 203 251 283 q 526 122 412 122 q 720 203 640 122 q 800 397 800 283 l 800 671 l 739 671 l 739 793 l 983 793 l 983 671 l 922 671 l 922 122 l 983 122 l 922 0 l 800 0 l 800 111 q 526 0 685 0 q 251 110 366 0 l 251 -150 l 312 -150 l 312 -272 l 68 -272 l 68 -150 l 129 -150 l 129 671 z "},"¶":{"ha":988,"x_min":68,"x_max":920,"o":"m 812 742 l 812 -338 l 690 -338 l 690 742 l 542 742 l 542 -338 l 420 -338 l 420 202 l 307 202 q 187 243 248 202 q 68 533 68 326 q 212 823 68 740 q 355 864 283 864 l 920 864 l 920 742 l 812 742 z "},"·":{"ha":345,"x_min":68,"x_max":224,"o":"m 223 488 q 200 433 223 456 q 146 410 178 410 q 91 433 113 410 q 68 488 68 456 q 91 543 68 520 q 146 566 113 566 q 200 543 178 566 q 223 488 223 520 z "},"∙":{"ha":345,"x_min":68,"x_max":224,"o":"m 223 488 q 200 433 223 456 q 146 410 178 410 q 91 433 113 410 q 68 488 68 456 q 91 543 68 520 q 146 566 113 566 q 200 543 178 566 q 223 488 223 520 z "},"¸":{"ha":490,"x_min":68,"x_max":422,"o":"m 377 -243 q 261 -272 336 -272 q 180 -262 218 -272 q 121 -241 149 -254 q 68 -203 90 -225 l 104 -129 l 162 -129 l 162 -158 q 200 -176 177 -168 q 261 -186 230 -186 q 298 -180 279 -186 q 331 -142 331 -170 q 281 -85 331 -117 q 235 -59 264 -74 l 223 -54 q 212 -47 216 -50 q 186 -33 200 -41 l 186 68 l 256 103 l 307 103 l 307 18 l 278 18 l 278 9 q 290 3 278 9 l 302 -3 l 314 -9 q 363 -40 344 -25 q 422 -142 422 -85 q 377 -243 422 -211 z "},"º":{"ha":659,"x_min":68,"x_max":591,"o":"m 330 903 q 202 855 254 903 q 148 739 148 807 q 202 622 148 670 q 330 574 254 574 q 458 622 405 574 q 511 739 511 670 q 458 855 511 807 q 330 903 405 903 m 591 739 q 515 570 591 640 q 330 500 438 500 q 144 570 221 500 q 68 739 68 640 q 144 907 68 837 q 330 977 221 977 q 515 907 438 977 q 591 739 591 837 m 177 351 l 177 426 l 482 426 l 482 351 l 177 351 z "},"»":{"ha":524,"x_min":68,"x_max":456,"o":"m 68 660 l 275 437 l 275 290 l 68 67 l 68 216 l 110 290 l 110 279 l 192 353 l 110 448 l 110 437 l 68 512 l 68 660 m 250 660 l 456 437 l 456 290 l 250 67 l 250 216 l 292 290 l 292 279 l 374 353 l 292 448 l 292 437 l 250 512 l 250 660 z "},"¿":{"ha":807,"x_min":68,"x_max":739,"o":"m 312 702 q 339 766 312 740 q 404 793 366 793 q 468 766 441 793 q 495 702 495 740 q 468 637 495 664 q 404 610 441 610 q 339 637 366 610 q 312 702 312 664 m 68 62 q 181 256 68 171 q 281 319 220 286 l 306 332 l 330 345 q 373 367 359 359 l 373 428 l 312 428 l 312 550 l 373 550 l 495 489 l 495 306 q 456 285 481 298 q 433 273 449 281 l 410 261 q 309 205 347 229 q 190 62 190 130 q 281 -45 190 -14 q 373 -60 328 -60 q 515 -36 445 -60 q 617 15 568 -17 l 617 62 l 678 62 l 739 -60 q 648 -121 709 -91 q 533 -163 594 -148 q 373 -182 457 -182 q 152 -129 227 -182 q 68 62 68 -69 z "},"À":{"ha":990,"x_min":68,"x_max":922,"o":"m 556 977 l 876 122 l 922 122 l 922 0 l 739 0 l 739 122 l 754 122 l 686 305 l 304 305 l 235 122 l 251 122 l 251 0 l 68 0 l 68 122 l 113 122 l 388 854 l 312 854 l 373 977 l 556 977 m 350 427 l 640 427 l 495 814 l 350 427 m 454 1248 l 576 1065 l 454 1065 l 332 1187 l 454 1248 z "},"Á":{"ha":990,"x_min":68,"x_max":922,"o":"m 556 977 l 876 122 l 922 122 l 922 0 l 739 0 l 739 122 l 754 122 l 686 305 l 304 305 l 235 122 l 251 122 l 251 0 l 68 0 l 68 122 l 113 122 l 388 854 l 312 854 l 373 977 l 556 977 m 350 427 l 640 427 l 495 814 l 350 427 m 658 1187 l 536 1065 l 414 1065 l 536 1248 l 658 1187 z "},"Â":{"ha":990,"x_min":68,"x_max":922,"o":"m 556 977 l 876 122 l 922 122 l 922 0 l 739 0 l 739 122 l 754 122 l 686 305 l 304 305 l 235 122 l 251 122 l 251 0 l 68 0 l 68 122 l 113 122 l 388 854 l 312 854 l 373 977 l 556 977 m 350 427 l 640 427 l 495 814 l 350 427 m 539 1036 l 495 1123 l 452 1036 l 363 1036 l 451 1201 l 539 1201 l 627 1036 l 539 1036 z "},"Ã":{"ha":990,"x_min":68,"x_max":922,"o":"m 556 977 l 876 122 l 922 122 l 922 0 l 739 0 l 739 122 l 754 122 l 686 305 l 304 305 l 235 122 l 251 122 l 251 0 l 68 0 l 68 122 l 113 122 l 388 854 l 312 854 l 373 977 l 556 977 m 350 427 l 640 427 l 495 814 l 350 427 m 732 1125 q 636 1059 687 1074 q 599 1055 618 1055 q 511 1076 558 1055 q 422 1103 464 1098 q 372 1097 395 1103 q 318 1057 331 1086 l 259 1131 q 355 1195 304 1176 q 395 1200 374 1200 q 481 1179 435 1200 q 569 1152 527 1158 q 619 1159 595 1152 q 673 1199 660 1171 l 732 1125 z "},"Ä":{"ha":990,"x_min":68,"x_max":922,"o":"m 556 977 l 876 122 l 922 122 l 922 0 l 739 0 l 739 122 l 754 122 l 686 305 l 304 305 l 235 122 l 251 122 l 251 0 l 68 0 l 68 122 l 113 122 l 388 854 l 312 854 l 373 977 l 556 977 m 350 427 l 640 427 l 495 814 l 350 427 m 448 1177 q 420 1112 448 1139 q 356 1085 394 1085 q 292 1112 318 1085 q 264 1177 264 1139 q 292 1241 264 1215 q 356 1268 318 1268 q 420 1241 394 1268 q 448 1177 448 1215 m 726 1177 q 699 1112 726 1139 q 634 1085 672 1085 q 570 1112 596 1085 q 543 1177 543 1139 q 570 1241 543 1215 q 634 1268 596 1268 q 699 1241 672 1268 q 726 1177 726 1215 z "},"Å":{"ha":990,"x_min":68,"x_max":922,"o":"m 556 977 l 876 122 l 922 122 l 922 0 l 739 0 l 739 122 l 754 122 l 686 305 l 304 305 l 235 122 l 251 122 l 251 0 l 68 0 l 68 122 l 113 122 l 388 854 l 312 854 l 373 977 l 556 977 m 350 427 l 640 427 l 495 814 l 350 427 m 585 1063 q 558 1126 585 1100 q 496 1153 532 1153 q 433 1126 458 1153 q 406 1063 406 1100 q 433 1000 406 1026 q 496 973 458 973 q 558 1000 532 973 q 585 1063 585 1026 m 646 1063 q 602 957 646 1000 q 496 912 558 912 q 389 957 433 912 q 345 1063 345 1000 q 389 1169 345 1126 q 496 1214 433 1214 q 602 1169 558 1214 q 646 1063 646 1126 z "},"Æ":{"ha":1234,"x_min":68,"x_max":1166,"o":"m 496 427 l 496 814 l 350 427 l 496 427 m 1044 793 l 1044 854 l 617 854 l 617 549 l 1044 549 l 1044 427 l 617 427 l 617 122 l 1044 122 l 1044 183 l 1166 183 l 1166 0 l 434 0 l 434 122 l 496 122 l 496 305 l 304 305 l 235 122 l 251 122 l 251 0 l 68 0 l 68 122 l 114 122 l 388 854 l 313 854 l 373 977 l 1166 977 l 1166 793 l 1044 793 z "},"Ç":{"ha":929,"x_min":68,"x_max":922,"o":"m 800 732 l 800 761 q 556 854 696 854 l 547 854 q 297 747 401 850 q 190 488 190 640 q 297 229 190 336 q 547 122 401 126 l 556 122 q 800 216 696 122 l 861 244 l 922 244 l 922 122 l 879 122 q 557 0 741 0 l 542 0 q 211 143 348 6 q 68 488 68 286 q 211 833 68 690 q 542 977 348 970 l 557 977 q 879 854 741 977 l 922 854 l 861 732 l 800 732 m 627 -243 q 511 -272 587 -272 q 430 -262 469 -272 q 372 -241 399 -254 q 318 -203 340 -225 l 355 -129 l 412 -129 l 412 -158 q 450 -176 427 -168 q 511 -186 480 -186 q 548 -180 529 -186 q 581 -142 581 -170 q 531 -85 581 -117 q 485 -59 514 -74 l 473 -54 q 462 -47 466 -50 q 436 -33 450 -41 l 436 68 l 507 103 l 557 103 l 557 18 l 528 18 l 528 9 q 541 3 528 9 l 552 -3 l 564 -9 q 614 -40 594 -25 q 673 -142 673 -85 q 627 -243 673 -211 z "},"È":{"ha":868,"x_min":68,"x_max":800,"o":"m 800 977 l 800 793 l 678 793 l 678 854 l 251 854 l 251 549 l 678 549 l 678 427 l 251 427 l 251 122 l 678 122 l 678 183 l 800 183 l 800 0 l 68 0 l 68 122 l 129 122 l 129 854 l 68 854 l 129 977 l 800 977 m 393 1248 l 515 1065 l 393 1065 l 271 1187 l 393 1248 z "},"É":{"ha":868,"x_min":68,"x_max":800,"o":"m 800 977 l 800 793 l 678 793 l 678 854 l 251 854 l 251 549 l 678 549 l 678 427 l 251 427 l 251 122 l 678 122 l 678 183 l 800 183 l 800 0 l 68 0 l 68 122 l 129 122 l 129 854 l 68 854 l 129 977 l 800 977 m 597 1187 l 475 1065 l 353 1065 l 475 1248 l 597 1187 z "},"Ê":{"ha":868,"x_min":68,"x_max":800,"o":"m 800 977 l 800 793 l 678 793 l 678 854 l 251 854 l 251 549 l 678 549 l 678 427 l 251 427 l 251 122 l 678 122 l 678 183 l 800 183 l 800 0 l 68 0 l 68 122 l 129 122 l 129 854 l 68 854 l 129 977 l 800 977 m 478 1036 l 434 1123 l 391 1036 l 302 1036 l 390 1201 l 478 1201 l 566 1036 l 478 1036 z "},"Ë":{"ha":868,"x_min":68,"x_max":800,"o":"m 800 977 l 800 793 l 678 793 l 678 854 l 251 854 l 251 549 l 678 549 l 678 427 l 251 427 l 251 122 l 678 122 l 678 183 l 800 183 l 800 0 l 68 0 l 68 122 l 129 122 l 129 854 l 68 854 l 129 977 l 800 977 m 387 1177 q 359 1112 387 1139 q 295 1085 333 1085 q 231 1112 257 1085 q 203 1177 203 1139 q 231 1241 203 1215 q 295 1268 257 1268 q 359 1241 333 1268 q 387 1177 387 1215 m 665 1177 q 637 1112 665 1139 q 573 1085 611 1085 q 509 1112 535 1085 q 481 1177 481 1139 q 509 1241 481 1215 q 573 1268 535 1268 q 637 1241 611 1268 q 665 1177 665 1215 z "},"Ì":{"ha":380,"x_min":27,"x_max":312,"o":"m 312 977 l 312 854 l 251 854 l 251 122 l 312 122 l 312 0 l 68 0 l 68 122 l 129 122 l 129 854 l 68 854 l 129 977 l 312 977 m 149 1248 l 271 1065 l 149 1065 l 27 1187 l 149 1248 z "},"Í":{"ha":380,"x_min":68,"x_max":353,"o":"m 312 977 l 312 854 l 251 854 l 251 122 l 312 122 l 312 0 l 68 0 l 68 122 l 129 122 l 129 854 l 68 854 l 129 977 l 312 977 m 353 1187 l 231 1065 l 109 1065 l 231 1248 l 353 1187 z "},"Î":{"ha":380,"x_min":58,"x_max":322,"o":"m 312 977 l 312 854 l 251 854 l 251 122 l 312 122 l 312 0 l 68 0 l 68 122 l 129 122 l 129 854 l 68 854 l 129 977 l 312 977 m 234 1036 l 190 1123 l 146 1036 l 58 1036 l 146 1201 l 234 1201 l 322 1036 l 234 1036 z "},"Ï":{"ha":380,"x_min":-41,"x_max":420,"o":"m 312 977 l 312 854 l 251 854 l 251 122 l 312 122 l 312 0 l 68 0 l 68 122 l 129 122 l 129 854 l 68 854 l 129 977 l 312 977 m 142 1177 q 115 1112 142 1139 q 51 1085 89 1085 q -14 1112 13 1085 q -41 1177 -41 1139 q -14 1241 -41 1215 q 51 1268 13 1268 q 115 1241 89 1268 q 142 1177 142 1215 m 420 1177 q 393 1112 420 1139 q 329 1085 367 1085 q 264 1112 291 1085 q 237 1177 237 1139 q 264 1241 237 1215 q 329 1268 291 1268 q 393 1241 367 1268 q 420 1177 420 1215 z "},"Ð":{"ha":1051,"x_min":0,"x_max":983,"o":"m 129 526 l 129 854 l 68 854 l 129 977 l 495 977 q 840 833 697 977 q 983 488 983 690 q 840 143 983 286 q 495 0 697 0 l 68 0 l 68 122 l 129 122 l 129 451 l 0 451 l 0 526 l 129 526 m 251 526 l 610 526 l 610 451 l 251 451 l 251 122 l 495 122 q 754 229 647 122 q 861 488 861 336 q 754 747 861 640 q 495 854 647 854 l 251 854 l 251 526 z "},"Ñ":{"ha":868,"x_min":68,"x_max":800,"o":"m 800 977 l 739 854 l 739 122 l 800 122 l 800 0 l 617 0 l 251 732 l 251 122 l 312 122 l 312 0 l 68 0 l 68 122 l 129 122 l 129 854 l 68 854 l 129 977 l 251 977 l 622 235 l 622 977 l 800 977 m 671 1125 q 575 1059 626 1074 q 538 1055 557 1055 q 450 1076 497 1055 q 361 1103 403 1098 q 311 1097 334 1103 q 257 1057 270 1086 l 198 1131 q 294 1195 243 1176 q 334 1200 313 1200 q 420 1179 374 1200 q 508 1152 466 1158 q 558 1159 534 1152 q 612 1199 599 1171 l 671 1125 z "},"Ò":{"ha":1112,"x_min":68,"x_max":1044,"o":"m 556 854 q 297 747 404 854 q 190 488 190 640 q 297 229 190 336 q 556 122 404 122 q 815 229 708 122 q 922 488 922 336 q 815 747 922 640 q 556 854 708 854 m 1044 488 q 901 143 1044 286 q 556 0 758 0 q 211 143 354 0 q 68 488 68 286 q 211 833 68 690 q 556 977 354 977 q 901 833 758 977 q 1044 488 1044 690 m 515 1248 l 637 1065 l 515 1065 l 393 1187 l 515 1248 z "},"Ó":{"ha":1112,"x_min":68,"x_max":1044,"o":"m 556 854 q 297 747 404 854 q 190 488 190 640 q 297 229 190 336 q 556 122 404 122 q 815 229 708 122 q 922 488 922 336 q 815 747 922 640 q 556 854 708 854 m 1044 488 q 901 143 1044 286 q 556 0 758 0 q 211 143 354 0 q 68 488 68 286 q 211 833 68 690 q 556 977 354 977 q 901 833 758 977 q 1044 488 1044 690 m 719 1187 l 597 1065 l 475 1065 l 597 1248 l 719 1187 z "},"Ô":{"ha":1112,"x_min":68,"x_max":1044,"o":"m 556 854 q 297 747 404 854 q 190 488 190 640 q 297 229 190 336 q 556 122 404 122 q 815 229 708 122 q 922 488 922 336 q 815 747 922 640 q 556 854 708 854 m 1044 488 q 901 143 1044 286 q 556 0 758 0 q 211 143 354 0 q 68 488 68 286 q 211 833 68 690 q 556 977 354 977 q 901 833 758 977 q 1044 488 1044 690 m 600 1036 l 556 1123 l 513 1036 l 425 1036 l 512 1201 l 600 1201 l 688 1036 l 600 1036 z "},"Õ":{"ha":1112,"x_min":68,"x_max":1044,"o":"m 556 854 q 297 747 404 854 q 190 488 190 640 q 297 229 190 336 q 556 122 404 122 q 815 229 708 122 q 922 488 922 336 q 815 747 922 640 q 556 854 708 854 m 1044 488 q 901 143 1044 286 q 556 0 758 0 q 211 143 354 0 q 68 488 68 286 q 211 833 68 690 q 556 977 354 977 q 901 833 758 977 q 1044 488 1044 690 m 793 1125 q 697 1059 748 1074 q 660 1055 679 1055 q 572 1076 619 1055 q 483 1103 525 1098 q 433 1097 456 1103 q 379 1057 392 1086 l 320 1131 q 416 1195 366 1176 q 456 1200 435 1200 q 542 1179 496 1200 q 630 1152 588 1158 q 680 1159 656 1152 q 734 1199 721 1171 l 793 1125 z "},"Ö":{"ha":1112,"x_min":68,"x_max":1044,"o":"m 556 854 q 297 747 404 854 q 190 488 190 640 q 297 229 190 336 q 556 122 404 122 q 815 229 708 122 q 922 488 922 336 q 815 747 922 640 q 556 854 708 854 m 1044 488 q 901 143 1044 286 q 556 0 758 0 q 211 143 354 0 q 68 488 68 286 q 211 833 68 690 q 556 977 354 977 q 901 833 758 977 q 1044 488 1044 690 m 509 1177 q 481 1112 509 1139 q 417 1085 455 1085 q 353 1112 379 1085 q 326 1177 326 1139 q 353 1241 326 1215 q 417 1268 379 1268 q 481 1241 455 1268 q 509 1177 509 1215 m 787 1177 q 760 1112 787 1139 q 695 1085 733 1085 q 631 1112 657 1085 q 604 1177 604 1139 q 631 1241 604 1215 q 695 1268 657 1268 q 760 1241 733 1268 q 787 1177 787 1215 z "},"×":{"ha":504,"x_min":68,"x_max":436,"o":"m 252 444 l 121 313 l 68 366 l 199 497 l 68 629 l 121 681 l 252 550 l 383 681 l 436 629 l 304 497 l 436 366 l 383 313 l 252 444 z "},"Ø":{"ha":1112,"x_min":68,"x_max":1044,"o":"m 821 900 q 901 833 863 871 q 1044 488 1044 690 q 901 143 1044 286 q 556 0 758 0 q 347 45 441 0 l 264 -102 l 142 -102 l 256 102 q 211 143 233 121 q 68 488 68 286 q 211 833 68 690 q 556 977 354 977 q 726 948 647 977 l 821 1119 l 943 1119 l 821 900 m 316 211 l 665 839 q 556 854 614 854 q 297 747 404 854 q 190 488 190 640 q 297 229 190 336 q 316 211 307 220 m 762 793 l 406 153 q 556 122 475 122 q 815 229 708 122 q 922 488 922 336 q 815 747 922 640 q 762 793 789 773 z "},"Ù":{"ha":868,"x_min":68,"x_max":800,"o":"m 800 977 l 800 854 l 739 854 l 739 300 q 703 153 739 226 q 434 0 629 0 q 167 153 243 0 q 129 305 129 229 l 129 854 l 68 854 l 129 977 l 312 977 l 312 854 l 251 854 l 251 305 q 274 214 251 260 q 434 122 319 122 q 540 151 497 122 q 594 214 574 174 q 617 305 617 259 l 617 854 l 556 854 l 556 977 l 800 977 m 393 1248 l 515 1065 l 393 1065 l 271 1187 l 393 1248 z "},"Ú":{"ha":868,"x_min":68,"x_max":800,"o":"m 800 977 l 800 854 l 739 854 l 739 300 q 703 153 739 226 q 434 0 629 0 q 167 153 243 0 q 129 305 129 229 l 129 854 l 68 854 l 129 977 l 312 977 l 312 854 l 251 854 l 251 305 q 274 214 251 260 q 434 122 319 122 q 540 151 497 122 q 594 214 574 174 q 617 305 617 259 l 617 854 l 556 854 l 556 977 l 800 977 m 597 1187 l 475 1065 l 353 1065 l 475 1248 l 597 1187 z "},"Û":{"ha":868,"x_min":68,"x_max":800,"o":"m 800 977 l 800 854 l 739 854 l 739 300 q 703 153 739 226 q 434 0 629 0 q 167 153 243 0 q 129 305 129 229 l 129 854 l 68 854 l 129 977 l 312 977 l 312 854 l 251 854 l 251 305 q 274 214 251 260 q 434 122 319 122 q 540 151 497 122 q 594 214 574 174 q 617 305 617 259 l 617 854 l 556 854 l 556 977 l 800 977 m 478 1036 l 434 1123 l 391 1036 l 302 1036 l 390 1201 l 478 1201 l 566 1036 l 478 1036 z "},"Ü":{"ha":868,"x_min":68,"x_max":800,"o":"m 800 977 l 800 854 l 739 854 l 739 300 q 703 153 739 226 q 434 0 629 0 q 167 153 243 0 q 129 305 129 229 l 129 854 l 68 854 l 129 977 l 312 977 l 312 854 l 251 854 l 251 305 q 274 214 251 260 q 434 122 319 122 q 540 151 497 122 q 594 214 574 174 q 617 305 617 259 l 617 854 l 556 854 l 556 977 l 800 977 m 387 1177 q 359 1112 387 1139 q 295 1085 333 1085 q 231 1112 257 1085 q 203 1177 203 1139 q 231 1241 203 1215 q 295 1268 257 1268 q 359 1241 333 1268 q 387 1177 387 1215 m 665 1177 q 637 1112 665 1139 q 573 1085 611 1085 q 509 1112 535 1085 q 481 1177 481 1139 q 509 1241 481 1215 q 573 1268 535 1268 q 637 1241 611 1268 q 665 1177 665 1215 z "},"Ý":{"ha":868,"x_min":68,"x_max":800,"o":"m 800 977 l 800 854 l 732 854 l 495 427 l 495 122 l 556 122 l 556 0 l 312 0 l 312 122 l 373 122 l 373 427 l 136 854 l 68 854 l 129 977 l 312 977 l 312 854 l 258 854 l 434 537 l 610 854 l 556 854 l 556 977 l 800 977 m 597 1187 l 475 1065 l 353 1065 l 475 1248 l 597 1187 z "},"Þ":{"ha":930,"x_min":68,"x_max":863,"o":"m 722 331 q 741 419 741 367 q 722 507 741 471 q 680 553 706 536 q 619 572 650 572 l 252 572 l 252 267 l 619 267 q 680 286 650 267 q 722 331 707 302 m 792 604 q 863 419 863 524 q 792 235 863 314 q 619 144 723 156 l 252 144 l 252 -24 l 313 -24 l 313 -146 l 68 -146 l 68 -24 l 132 -24 l 132 829 l 69 829 l 130 951 l 313 951 l 313 829 l 252 829 l 252 694 l 619 694 q 792 604 723 682 z "},"ß":{"ha":800,"x_min":0,"x_max":732,"o":"m 488 488 q 610 458 549 488 q 694 385 664 431 q 732 244 732 328 q 665 45 732 115 q 511 -23 606 -17 q 489 -24 500 -24 q 346 12 414 -24 q 244 122 267 54 l 244 244 l 366 244 l 366 183 q 430 115 389 138 q 494 98 461 98 q 511 99 503 98 q 581 140 554 105 q 610 244 610 179 q 572 350 610 307 q 488 404 542 385 q 366 427 427 427 q 336 435 351 427 q 305 488 305 450 q 336 542 305 526 q 366 549 351 549 q 503 597 452 549 q 549 702 549 640 q 503 807 549 764 q 366 854 452 854 q 260 836 303 854 q 206 793 226 820 q 183 732 183 763 l 183 0 l 0 0 l 0 122 l 61 122 l 61 732 q 99 854 61 793 q 190 939 132 908 q 366 977 261 977 q 600 900 515 977 q 679 732 673 834 q 680 713 680 722 q 632 564 680 629 q 488 488 576 488 z "},"à":{"ha":990,"x_min":68,"x_max":922,"o":"m 465 122 q 659 203 578 122 q 739 397 739 283 q 659 591 739 511 q 465 671 578 671 q 271 591 351 671 q 190 397 190 511 q 271 203 190 283 q 465 122 351 122 m 861 122 l 922 122 l 922 0 l 739 0 l 739 111 q 465 0 624 0 q 184 116 300 0 q 68 397 68 233 q 184 677 68 561 q 465 793 300 793 q 739 683 624 793 l 800 793 l 922 793 l 922 671 l 861 671 l 861 122 m 454 1065 l 576 882 l 454 882 l 332 1004 l 454 1065 z "},"á":{"ha":990,"x_min":68,"x_max":922,"o":"m 465 122 q 659 203 578 122 q 739 397 739 283 q 659 591 739 511 q 465 671 578 671 q 271 591 351 671 q 190 397 190 511 q 271 203 190 283 q 465 122 351 122 m 861 122 l 922 122 l 922 0 l 739 0 l 739 111 q 465 0 624 0 q 184 116 300 0 q 68 397 68 233 q 184 677 68 561 q 465 793 300 793 q 739 683 624 793 l 800 793 l 922 793 l 922 671 l 861 671 l 861 122 m 658 1004 l 536 882 l 414 882 l 536 1065 l 658 1004 z "},"â":{"ha":990,"x_min":68,"x_max":922,"o":"m 465 122 q 659 203 578 122 q 739 397 739 283 q 659 591 739 511 q 465 671 578 671 q 271 591 351 671 q 190 397 190 511 q 271 203 190 283 q 465 122 351 122 m 861 122 l 922 122 l 922 0 l 739 0 l 739 111 q 465 0 624 0 q 184 116 300 0 q 68 397 68 233 q 184 677 68 561 q 465 793 300 793 q 739 683 624 793 l 800 793 l 922 793 l 922 671 l 861 671 l 861 122 m 539 852 l 495 940 l 452 852 l 363 852 l 451 1018 l 539 1018 l 627 852 l 539 852 z "},"ã":{"ha":990,"x_min":68,"x_max":922,"o":"m 465 122 q 659 203 578 122 q 739 397 739 283 q 659 591 739 511 q 465 671 578 671 q 271 591 351 671 q 190 397 190 511 q 271 203 190 283 q 465 122 351 122 m 861 122 l 922 122 l 922 0 l 739 0 l 739 111 q 465 0 624 0 q 184 116 300 0 q 68 397 68 233 q 184 677 68 561 q 465 793 300 793 q 739 683 624 793 l 800 793 l 922 793 l 922 671 l 861 671 l 861 122 m 732 942 q 636 876 687 890 q 599 871 618 871 q 511 893 558 871 q 422 920 464 915 q 372 913 395 920 q 318 873 331 903 l 259 947 q 355 1012 304 993 q 395 1017 374 1017 q 481 996 435 1017 q 569 969 527 975 q 619 976 595 969 q 673 1016 660 987 l 732 942 z "},"ä":{"ha":990,"x_min":68,"x_max":922,"o":"m 465 122 q 659 203 578 122 q 739 397 739 283 q 659 591 739 511 q 465 671 578 671 q 271 591 351 671 q 190 397 190 511 q 271 203 190 283 q 465 122 351 122 m 861 122 l 922 122 l 922 0 l 739 0 l 739 111 q 465 0 624 0 q 184 116 300 0 q 68 397 68 233 q 184 677 68 561 q 465 793 300 793 q 739 683 624 793 l 800 793 l 922 793 l 922 671 l 861 671 l 861 122 m 448 994 q 420 929 448 956 q 356 902 394 902 q 292 929 318 902 q 264 994 264 956 q 292 1058 264 1031 q 356 1085 318 1085 q 420 1058 394 1085 q 448 994 448 1031 m 726 994 q 699 929 726 956 q 634 902 672 902 q 570 929 596 902 q 543 994 543 956 q 570 1058 543 1031 q 634 1085 596 1085 q 699 1058 672 1085 q 726 994 726 1031 z "},"å":{"ha":990,"x_min":68,"x_max":922,"o":"m 465 122 q 659 203 578 122 q 739 397 739 283 q 659 591 739 511 q 465 671 578 671 q 271 591 351 671 q 190 397 190 511 q 271 203 190 283 q 465 122 351 122 m 861 122 l 922 122 l 922 0 l 739 0 l 739 111 q 465 0 624 0 q 184 116 300 0 q 68 397 68 233 q 184 677 68 561 q 465 793 300 793 q 739 683 624 793 l 800 793 l 922 793 l 922 671 l 861 671 l 861 122 m 585 1033 q 557 1095 585 1069 q 495 1122 532 1122 q 432 1095 458 1122 q 405 1033 405 1069 q 432 970 405 996 q 495 943 458 943 q 557 970 532 943 q 585 1033 585 996 m 646 1033 q 601 926 646 970 q 495 882 557 882 q 389 926 432 882 q 344 1033 344 970 q 389 1139 344 1095 q 495 1183 432 1183 q 601 1139 557 1183 q 646 1033 646 1095 z "},"æ":{"ha":1601,"x_min":68,"x_max":1533,"o":"m 465 122 q 659 203 578 122 q 739 397 739 283 q 659 591 739 511 q 465 671 578 671 q 271 591 351 671 q 190 397 190 511 q 271 203 190 283 q 465 122 351 122 m 1411 488 q 1312 623 1390 572 q 1137 671 1237 671 q 977 620 1048 671 q 878 488 906 570 l 1411 488 m 922 62 l 922 0 l 739 0 l 739 111 q 465 0 624 0 q 184 116 300 0 q 68 397 68 233 q 184 677 68 561 q 465 793 300 793 q 739 683 624 793 l 800 793 l 922 793 l 922 732 q 1137 793 1017 793 q 1438 679 1330 793 q 1533 427 1533 578 l 1533 366 l 864 366 q 953 193 875 262 q 1137 122 1031 122 q 1350 244 1259 122 l 1472 244 l 1472 122 l 1411 122 q 1137 0 1294 0 q 922 62 1017 0 z "},"ç":{"ha":807,"x_min":68,"x_max":739,"o":"m 617 241 l 739 241 l 739 119 q 462 0 623 3 l 456 0 q 184 113 298 0 q 68 394 68 229 q 184 674 68 558 q 454 787 297 787 l 462 787 q 739 669 623 785 l 678 547 l 617 547 l 617 622 q 466 669 548 669 q 439 667 452 669 q 271 588 340 659 q 190 394 190 507 q 271 199 190 280 q 439 120 340 130 q 466 119 452 119 q 617 165 548 119 l 617 241 m 536 -243 q 420 -272 495 -272 q 338 -262 377 -272 q 280 -241 307 -254 q 227 -203 249 -225 l 263 -129 l 321 -129 l 321 -158 q 359 -176 336 -168 q 420 -186 389 -186 q 456 -180 437 -186 q 490 -142 490 -170 q 439 -85 490 -117 q 393 -59 422 -74 l 382 -54 q 370 -47 374 -50 q 345 -33 359 -41 l 345 68 l 415 103 l 465 103 l 465 18 l 437 18 l 437 9 q 449 3 437 9 l 460 -3 l 473 -9 q 522 -40 503 -25 q 581 -142 581 -85 q 536 -243 581 -211 z "},"è":{"ha":929,"x_min":68,"x_max":861,"o":"m 739 488 q 640 623 718 572 q 465 671 565 671 q 304 620 376 671 q 205 488 234 570 l 739 488 m 861 366 l 192 366 q 281 193 203 262 q 465 122 359 122 q 678 244 587 122 l 800 244 l 800 122 l 739 122 q 465 0 622 0 q 184 116 300 0 q 68 397 68 233 q 184 677 68 561 q 465 793 300 793 q 766 679 658 793 q 861 427 861 578 l 861 366 m 424 1065 l 546 882 l 424 882 l 302 1004 l 424 1065 z "},"é":{"ha":929,"x_min":68,"x_max":861,"o":"m 739 488 q 640 623 718 572 q 465 671 565 671 q 304 620 376 671 q 205 488 234 570 l 739 488 m 861 366 l 192 366 q 281 193 203 262 q 465 122 359 122 q 678 244 587 122 l 800 244 l 800 122 l 739 122 q 465 0 622 0 q 184 116 300 0 q 68 397 68 233 q 184 677 68 561 q 465 793 300 793 q 766 679 658 793 q 861 427 861 578 l 861 366 m 627 1004 l 505 882 l 383 882 l 505 1065 l 627 1004 z "},"ê":{"ha":929,"x_min":68,"x_max":861,"o":"m 739 488 q 640 623 718 572 q 465 671 565 671 q 304 620 376 671 q 205 488 234 570 l 739 488 m 861 366 l 192 366 q 281 193 203 262 q 465 122 359 122 q 678 244 587 122 l 800 244 l 800 122 l 739 122 q 465 0 622 0 q 184 116 300 0 q 68 397 68 233 q 184 677 68 561 q 465 793 300 793 q 766 679 658 793 q 861 427 861 578 l 861 366 m 509 852 l 465 940 l 421 852 l 333 852 l 420 1018 l 509 1018 l 597 852 l 509 852 z "},"ì":{"ha":380,"x_min":27,"x_max":312,"o":"m 312 793 l 312 671 l 251 671 l 251 122 l 312 122 l 312 0 l 68 0 l 68 122 l 129 122 l 129 732 l 312 793 m 149 1065 l 271 882 l 149 882 l 27 1004 l 149 1065 z "},"í":{"ha":380,"x_min":68,"x_max":353,"o":"m 312 793 l 312 671 l 251 671 l 251 122 l 312 122 l 312 0 l 68 0 l 68 122 l 129 122 l 129 732 l 312 793 m 353 1004 l 231 882 l 109 882 l 231 1065 l 353 1004 z "},"î":{"ha":380,"x_min":58,"x_max":322,"o":"m 312 793 l 312 671 l 251 671 l 251 122 l 312 122 l 312 0 l 68 0 l 68 122 l 129 122 l 129 732 l 312 793 m 234 852 l 190 940 l 146 852 l 58 852 l 146 1018 l 234 1018 l 322 852 l 234 852 z "},"ï":{"ha":380,"x_min":-41,"x_max":420,"o":"m 312 793 l 312 671 l 251 671 l 251 122 l 312 122 l 312 0 l 68 0 l 68 122 l 129 122 l 129 732 l 312 793 m 142 994 q 115 929 142 956 q 51 902 89 902 q -14 929 13 902 q -41 994 -41 956 q -14 1058 -41 1031 q 51 1085 13 1085 q 115 1058 89 1085 q 142 994 142 1031 m 420 994 q 393 929 420 956 q 329 902 367 902 q 264 929 291 902 q 237 994 237 956 q 264 1058 237 1031 q 329 1085 291 1085 q 393 1058 367 1085 q 420 994 420 1031 z "},"ð":{"ha":753,"x_min":68,"x_max":685,"o":"m 556 305 q 565 382 562 344 q 434 488 506 452 q 345 511 388 511 q 266 488 300 511 q 211 420 231 465 q 190 305 190 372 q 373 122 190 122 q 507 190 454 122 q 541 250 526 216 q 556 305 551 278 m 541 808 q 665 547 629 701 q 685 388 685 463 q 678 305 685 345 q 669 262 674 280 q 657 213 664 235 q 610 113 640 155 q 373 0 532 0 q 152 84 235 0 q 68 305 68 168 q 109 487 68 413 q 208 587 145 551 q 329 621 263 616 q 354 623 342 623 q 434 610 397 623 q 549 557 496 589 q 444 751 513 671 l 312 671 l 312 793 l 360 823 q 251 854 306 854 l 190 977 l 251 977 q 463 884 371 957 l 617 977 l 617 854 l 541 808 z "},"ñ":{"ha":1051,"x_min":68,"x_max":983,"o":"m 983 122 l 983 0 l 739 0 l 739 122 l 800 122 l 800 397 q 720 591 800 511 q 526 671 640 671 q 332 591 412 671 q 251 397 251 511 l 251 122 l 312 122 l 312 0 l 68 0 l 68 122 l 129 122 l 129 671 l 68 671 l 129 793 l 251 793 l 251 683 q 526 793 366 793 q 806 677 690 793 q 922 397 922 561 l 922 122 l 983 122 m 762 942 q 667 876 718 890 q 629 871 648 871 q 542 893 589 871 q 452 920 494 915 q 402 913 426 920 q 349 873 361 903 l 290 947 q 386 1012 335 993 q 426 1017 404 1017 q 512 996 466 1017 q 600 969 557 975 q 650 976 626 969 q 703 1016 690 987 l 762 942 z "},"ò":{"ha":929,"x_min":68,"x_max":861,"o":"m 465 671 q 271 591 351 671 q 190 397 190 511 q 271 203 190 283 q 465 122 351 122 q 659 203 578 122 q 739 397 739 283 q 659 591 739 511 q 465 671 578 671 m 861 397 q 745 116 861 233 q 465 0 629 0 q 184 116 300 0 q 68 397 68 233 q 184 677 68 561 q 465 793 300 793 q 745 677 629 793 q 861 397 861 561 m 424 1065 l 546 882 l 424 882 l 302 1004 l 424 1065 z "},"ó":{"ha":929,"x_min":68,"x_max":861,"o":"m 465 671 q 271 591 351 671 q 190 397 190 511 q 271 203 190 283 q 465 122 351 122 q 659 203 578 122 q 739 397 739 283 q 659 591 739 511 q 465 671 578 671 m 861 397 q 745 116 861 233 q 465 0 629 0 q 184 116 300 0 q 68 397 68 233 q 184 677 68 561 q 465 793 300 793 q 745 677 629 793 q 861 397 861 561 m 627 1004 l 505 882 l 383 882 l 505 1065 l 627 1004 z "},"ô":{"ha":929,"x_min":68,"x_max":861,"o":"m 465 671 q 271 591 351 671 q 190 397 190 511 q 271 203 190 283 q 465 122 351 122 q 659 203 578 122 q 739 397 739 283 q 659 591 739 511 q 465 671 578 671 m 861 397 q 745 116 861 233 q 465 0 629 0 q 184 116 300 0 q 68 397 68 233 q 184 677 68 561 q 465 793 300 793 q 745 677 629 793 q 861 397 861 561 m 509 852 l 465 940 l 421 852 l 333 852 l 420 1018 l 509 1018 l 597 852 l 509 852 z "},"õ":{"ha":929,"x_min":68,"x_max":861,"o":"m 465 671 q 271 591 351 671 q 190 397 190 511 q 271 203 190 283 q 465 122 351 122 q 659 203 578 122 q 739 397 739 283 q 659 591 739 511 q 465 671 578 671 m 861 397 q 745 116 861 233 q 465 0 629 0 q 184 116 300 0 q 68 397 68 233 q 184 677 68 561 q 465 793 300 793 q 745 677 629 793 q 861 397 861 561 m 701 942 q 606 876 656 890 q 568 871 587 871 q 480 893 528 871 q 391 920 433 915 q 341 913 365 920 q 288 873 300 903 l 229 947 q 325 1012 274 993 q 365 1017 343 1017 q 451 996 405 1017 q 538 969 496 975 q 589 976 565 969 q 642 1016 629 987 l 701 942 z "},"ö":{"ha":929,"x_min":68,"x_max":861,"o":"m 465 671 q 271 591 351 671 q 190 397 190 511 q 271 203 190 283 q 465 122 351 122 q 659 203 578 122 q 739 397 739 283 q 659 591 739 511 q 465 671 578 671 m 861 397 q 745 116 861 233 q 465 0 629 0 q 184 116 300 0 q 68 397 68 233 q 184 677 68 561 q 465 793 300 793 q 745 677 629 793 q 861 397 861 561 m 417 994 q 390 929 417 956 q 326 902 363 902 q 261 929 288 902 q 234 994 234 956 q 261 1058 234 1031 q 326 1085 288 1085 q 390 1058 363 1085 q 417 994 417 1031 m 695 994 q 668 929 695 956 q 604 902 642 902 q 539 929 566 902 q 512 994 512 956 q 539 1058 512 1031 q 604 1085 566 1085 q 668 1058 642 1085 q 695 994 695 1031 z "},"÷":{"ha":582,"x_min":68,"x_max":514,"o":"m 68 375 l 68 450 l 514 450 l 514 375 l 68 375 m 382 253 q 355 189 382 215 q 291 161 329 161 q 227 189 253 161 q 199 253 199 215 q 227 317 199 291 q 291 345 253 345 q 355 317 329 345 q 382 253 382 291 m 382 572 q 355 507 382 534 q 291 480 329 480 q 227 507 253 480 q 199 572 199 534 q 227 636 199 610 q 291 663 253 663 q 355 636 329 663 q 382 572 382 610 z "},"ø":{"ha":929,"x_min":68,"x_max":861,"o":"m 686 727 q 745 677 717 706 q 861 397 861 561 q 745 116 861 233 q 465 0 629 0 q 333 21 394 0 l 285 -75 l 163 -75 l 236 72 q 184 116 209 91 q 68 397 68 233 q 184 677 68 561 q 465 793 300 793 q 587 775 530 793 l 651 902 l 773 902 l 686 727 m 292 183 l 532 664 q 465 671 500 671 q 271 591 351 671 q 190 397 190 511 q 271 203 190 283 q 292 183 281 193 m 630 616 l 388 132 q 465 122 425 122 q 659 203 578 122 q 739 397 739 283 q 659 591 739 511 q 630 616 645 604 z "},"ù":{"ha":1051,"x_min":68,"x_max":983,"o":"m 68 671 l 129 793 l 312 793 l 312 671 l 251 671 l 251 397 q 332 203 251 283 q 526 122 412 122 q 720 203 640 122 q 800 397 800 283 l 800 671 l 739 671 l 739 793 l 983 793 l 983 671 l 922 671 l 922 122 l 983 122 l 922 0 l 800 0 l 800 111 q 526 0 685 0 q 245 116 361 0 q 129 397 129 233 l 129 671 l 68 671 m 485 1065 l 607 882 l 485 882 l 363 1004 l 485 1065 z "},"ú":{"ha":1051,"x_min":68,"x_max":983,"o":"m 68 671 l 129 793 l 312 793 l 312 671 l 251 671 l 251 397 q 332 203 251 283 q 526 122 412 122 q 720 203 640 122 q 800 397 800 283 l 800 671 l 739 671 l 739 793 l 983 793 l 983 671 l 922 671 l 922 122 l 983 122 l 922 0 l 800 0 l 800 111 q 526 0 685 0 q 245 116 361 0 q 129 397 129 233 l 129 671 l 68 671 m 688 1004 l 566 882 l 444 882 l 566 1065 l 688 1004 z "},"û":{"ha":1051,"x_min":68,"x_max":983,"o":"m 68 671 l 129 793 l 312 793 l 312 671 l 251 671 l 251 397 q 332 203 251 283 q 526 122 412 122 q 720 203 640 122 q 800 397 800 283 l 800 671 l 739 671 l 739 793 l 983 793 l 983 671 l 922 671 l 922 122 l 983 122 l 922 0 l 800 0 l 800 111 q 526 0 685 0 q 245 116 361 0 q 129 397 129 233 l 129 671 l 68 671 m 570 852 l 526 940 l 482 852 l 394 852 l 481 1018 l 570 1018 l 658 852 l 570 852 z "},"ü":{"ha":1051,"x_min":68,"x_max":983,"o":"m 68 671 l 129 793 l 312 793 l 312 671 l 251 671 l 251 397 q 332 203 251 283 q 526 122 412 122 q 720 203 640 122 q 800 397 800 283 l 800 671 l 739 671 l 739 793 l 983 793 l 983 671 l 922 671 l 922 122 l 983 122 l 922 0 l 800 0 l 800 111 q 526 0 685 0 q 245 116 361 0 q 129 397 129 233 l 129 671 l 68 671 m 478 994 q 451 929 478 956 q 387 902 425 902 q 322 929 349 902 q 295 994 295 956 q 322 1058 295 1031 q 387 1085 349 1085 q 451 1058 425 1085 q 478 994 478 1031 m 756 994 q 729 929 756 956 q 665 902 703 902 q 600 929 627 902 q 573 994 573 956 q 600 1058 573 1031 q 665 1085 627 1085 q 729 1058 703 1085 q 756 994 756 1031 z "},"ý":{"ha":1051,"x_min":68,"x_max":983,"o":"m 800 0 l 800 111 q 526 0 685 0 q 245 116 361 0 q 129 397 129 233 l 129 671 l 68 671 l 129 793 l 312 793 l 312 671 l 251 671 l 251 397 q 332 203 251 283 q 526 122 412 122 q 720 203 640 122 q 800 397 800 283 l 800 671 l 739 671 l 739 793 l 983 793 l 983 671 l 922 671 l 922 0 q 876 -151 922 -75 q 556 -304 785 -304 q 325 -244 415 -304 q 220 -121 255 -198 l 190 -121 l 190 1 l 312 1 q 342 -90 312 -44 q 556 -182 404 -182 q 770 -90 709 -182 q 800 0 800 -45 m 688 1004 l 566 882 l 444 882 l 566 1065 l 688 1004 z "},"þ":{"ha":929,"x_min":7,"x_max":861,"o":"m 659 200 q 739 394 739 280 q 659 588 739 509 q 465 669 578 669 q 271 588 351 669 q 190 394 190 509 q 271 200 190 279 q 465 119 351 119 q 659 200 578 119 m 745 675 q 861 394 861 558 q 745 113 861 231 q 465 -3 629 -3 q 190 108 304 -3 l 190 -272 l 7 -272 l 7 -150 l 68 -150 l 68 899 l 7 899 l 68 1021 l 251 1021 l 251 899 l 190 899 l 190 680 q 465 791 304 791 q 745 675 629 791 z "},"ÿ":{"ha":1051,"x_min":68,"x_max":983,"o":"m 800 0 l 800 111 q 526 0 685 0 q 245 116 361 0 q 129 397 129 233 l 129 671 l 68 671 l 129 793 l 312 793 l 312 671 l 251 671 l 251 397 q 332 203 251 283 q 526 122 412 122 q 720 203 640 122 q 800 397 800 283 l 800 671 l 739 671 l 739 793 l 983 793 l 983 671 l 922 671 l 922 0 q 876 -151 922 -75 q 556 -304 785 -304 q 325 -244 415 -304 q 220 -121 255 -198 l 190 -121 l 190 1 l 312 1 q 342 -90 312 -44 q 556 -182 404 -182 q 770 -90 709 -182 q 800 0 800 -45 m 478 994 q 451 929 478 956 q 387 902 425 902 q 322 929 349 902 q 295 994 295 956 q 322 1058 295 1031 q 387 1085 349 1085 q 451 1058 425 1085 q 478 994 478 1031 m 756 994 q 729 929 756 956 q 665 902 703 902 q 600 929 627 902 q 573 994 573 956 q 600 1058 573 1031 q 665 1085 627 1085 q 729 1058 703 1085 q 756 994 756 1031 z "},"ı":{"ha":380,"x_min":68,"x_max":312,"o":"m 312 793 l 312 671 l 251 671 l 251 122 l 312 122 l 312 0 l 68 0 l 68 122 l 129 122 l 129 732 l 312 793 z "},"ˆ":{"ha":399,"x_min":68,"x_max":332,"o":"m 243 852 l 199 940 l 156 852 l 68 852 l 155 1018 l 243 1018 l 332 852 l 243 852 z "},"ˇ":{"ha":399,"x_min":68,"x_max":332,"o":"m 332 1018 l 243 852 l 155 852 l 68 1018 l 156 1018 l 199 930 l 243 1018 l 332 1018 z "},"ˉ":{"ha":582,"x_min":68,"x_max":514,"o":"m 68 960 l 68 1034 l 514 1034 l 514 960 l 68 960 z "},"˘":{"ha":1527,"x_min":437,"x_max":950,"o":"m 867 790 q 822 855 854 826 q 694 903 769 903 q 566 855 618 903 q 521 790 534 826 l 437 790 q 509 907 453 856 q 694 977 585 977 q 879 907 802 977 q 950 790 935 856 l 867 790 z "},"˙":{"ha":319,"x_min":68,"x_max":251,"o":"m 224 896 q 159 869 197 869 q 95 896 121 869 q 68 960 68 922 q 95 1025 68 998 q 159 1052 121 1052 q 224 1025 197 1052 q 251 960 251 998 q 224 896 251 922 z "},"˚":{"ha":437,"x_min":68,"x_max":370,"o":"m 309 934 q 281 996 309 970 q 219 1023 256 1023 q 156 996 182 1023 q 129 934 129 970 q 156 871 129 897 q 219 844 182 844 q 281 871 256 844 q 309 934 309 897 m 370 934 q 325 827 370 871 q 219 783 281 783 q 113 827 156 783 q 68 934 68 871 q 113 1040 68 996 q 219 1084 156 1084 q 325 1040 281 1084 q 370 934 370 996 z "},"˜":{"ha":608,"x_min":68,"x_max":541,"o":"m 541 942 q 445 876 496 890 q 408 871 427 871 q 320 893 367 871 q 231 920 273 915 q 180 913 204 920 q 127 873 140 903 l 68 947 q 164 1012 113 993 q 204 1017 182 1017 q 290 996 244 1017 q 378 969 336 975 q 428 976 404 969 q 481 1016 469 987 l 541 942 z "},"˝":{"ha":694,"x_min":-54,"x_max":434,"o":"m 190 1004 l 68 882 l -54 882 l 68 1065 l 190 1004 m 434 1004 l 312 882 l 190 882 l 312 1065 l 434 1004 z "},"–":{"ha":582,"x_min":68,"x_max":514,"o":"m 68 375 l 68 450 l 514 450 l 514 375 l 68 375 z "},"—":{"ha":1017,"x_min":68,"x_max":949,"o":"m 68 375 l 68 450 l 949 450 l 949 375 l 68 375 z "},"‘":{"ha":319,"x_min":68,"x_max":252,"o":"m 207 843 q 224 829 216 838 q 252 764 252 802 q 224 699 252 726 q 160 672 198 672 q 95 699 122 672 q 68 764 68 726 q 92 825 68 800 l 191 978 l 252 978 l 207 843 z "},"’":{"ha":319,"x_min":68,"x_max":252,"o":"m 113 807 q 95 821 103 812 q 68 886 68 848 q 95 951 68 924 q 159 978 121 978 q 224 951 197 978 q 252 886 252 924 q 228 825 252 850 l 129 672 l 68 672 l 113 807 z "},"‚":{"ha":319,"x_min":68,"x_max":252,"o":"m 113 13 q 95 27 103 18 q 68 92 68 54 q 95 157 68 130 q 159 184 121 184 q 224 157 197 184 q 252 92 252 130 q 228 31 252 56 l 129 -122 l 68 -122 l 113 13 z "},"“":{"ha":576,"x_min":68,"x_max":509,"o":"m 207 843 q 224 829 216 838 q 252 764 252 802 q 224 699 252 726 q 160 672 198 672 q 95 699 122 672 q 68 764 68 726 q 92 825 68 800 l 191 978 l 252 978 l 207 843 m 464 843 q 481 829 473 838 q 509 764 509 802 q 481 699 509 726 q 417 672 455 672 q 352 699 379 672 q 325 764 325 726 q 349 825 325 800 l 448 978 l 509 978 l 464 843 z "},"”":{"ha":576,"x_min":68,"x_max":509,"o":"m 113 807 q 95 821 103 812 q 68 886 68 848 q 95 951 68 924 q 159 978 121 978 q 224 951 197 978 q 252 886 252 924 q 228 825 252 850 l 129 672 l 68 672 l 113 807 m 370 807 q 352 821 360 812 q 325 886 325 848 q 352 951 325 924 q 416 978 378 978 q 481 951 454 978 q 509 886 509 924 q 485 825 509 850 l 386 672 l 325 672 l 370 807 z "},"„":{"ha":576,"x_min":68,"x_max":509,"o":"m 113 -18 q 95 -3 103 -12 q 68 62 68 24 q 95 126 68 100 q 159 153 121 153 q 224 126 197 153 q 252 62 252 100 q 228 0 252 26 l 129 -153 l 68 -153 l 113 -18 m 370 -18 q 352 -3 360 -12 q 325 62 325 24 q 352 126 325 100 q 416 153 378 153 q 481 126 454 153 q 509 62 509 100 q 485 0 509 26 l 386 -153 l 325 -153 l 370 -18 z "},"†":{"ha":747,"x_min":68,"x_max":680,"o":"m 435 703 l 680 703 l 680 581 l 435 581 l 435 -204 l 313 -204 l 313 581 l 68 581 l 68 703 l 313 703 l 313 886 l 435 947 l 435 703 z "},"‡":{"ha":747,"x_min":68,"x_max":680,"o":"m 313 40 l 68 40 l 68 162 l 313 162 l 313 581 l 68 581 l 68 703 l 313 703 l 313 886 l 435 947 l 435 703 l 680 703 l 680 581 l 435 581 l 435 162 l 680 162 l 680 40 l 435 40 l 435 -204 l 313 -204 l 313 40 z "},"•":{"ha":455,"x_min":68,"x_max":387,"o":"m 387 430 q 340 317 387 363 q 228 270 294 270 q 115 317 161 270 q 68 430 68 363 q 115 542 68 496 q 228 589 161 589 q 340 542 294 589 q 387 430 387 496 z "},"…":{"ha":1389,"x_min":68,"x_max":1177,"o":"m 251 92 q 224 27 251 54 q 159 0 197 0 q 95 27 121 0 q 68 92 68 54 q 95 156 68 130 q 159 183 121 183 q 224 156 197 183 q 251 92 251 130 m 714 92 q 687 27 714 54 q 623 0 661 0 q 558 27 585 0 q 531 92 531 54 q 558 156 531 130 q 623 183 585 183 q 687 156 661 183 q 714 92 714 130 m 1177 92 q 1150 27 1177 54 q 1086 0 1124 0 q 1021 27 1048 0 q 994 92 994 54 q 1021 156 994 130 q 1086 183 1048 183 q 1150 156 1124 183 q 1177 92 1177 130 z "},"‹":{"ha":342,"x_min":68,"x_max":275,"o":"m 275 512 l 233 437 l 233 448 l 150 353 l 233 279 l 233 290 l 275 216 l 275 67 l 68 290 l 68 437 l 275 660 l 275 512 z "},"›":{"ha":342,"x_min":68,"x_max":275,"o":"m 68 660 l 275 437 l 275 290 l 68 67 l 68 216 l 110 290 l 110 279 l 192 353 l 110 448 l 110 437 l 68 512 l 68 660 z "},"⁄":{"ha":746,"x_min":68,"x_max":678,"o":"m 678 977 l 190 0 l 68 0 l 556 977 l 678 977 z "},"∕":{"ha":746,"x_min":68,"x_max":678,"o":"m 678 977 l 190 0 l 68 0 l 556 977 l 678 977 z "},"₣":{"ha":868,"x_min":68,"x_max":800,"o":"m 129 281 l 129 854 l 68 854 l 129 977 l 800 977 l 800 793 l 678 793 l 678 854 l 251 854 l 251 549 l 678 549 l 678 427 l 251 427 l 251 281 l 677 281 l 677 207 l 251 207 l 251 122 l 312 122 l 312 0 l 68 0 l 68 122 l 129 122 l 129 207 l 68 207 l 68 281 l 129 281 z "},"₤":{"ha":766,"x_min":0,"x_max":699,"o":"m 637 155 l 637 183 l 699 183 l 699 68 q 530 0 618 0 q 417 27 470 0 q 294 54 363 54 q 189 -1 236 54 l 68 120 q 170 339 170 221 q 119 525 170 398 q 68 727 68 651 q 366 972 68 972 q 690 745 607 972 l 690 684 l 568 684 l 568 721 q 370 867 492 867 q 201 715 201 867 q 249 506 201 625 q 298 330 298 387 q 210 136 298 224 q 323 165 264 165 q 422 142 372 165 q 533 119 472 119 q 637 155 597 119 m 0 473 l 0 543 l 612 543 l 612 473 l 0 473 m 0 338 l 0 408 l 612 408 l 612 338 l 0 338 z "},"₧":{"ha":1767,"x_min":68,"x_max":1699,"o":"m 656 790 q 618 836 643 819 q 564 854 591 854 l 234 854 l 234 549 l 564 549 q 618 568 591 549 q 656 614 643 585 q 673 702 673 650 q 656 790 673 754 m 703 498 q 564 427 646 437 l 234 427 l 234 122 l 289 122 l 289 0 l 68 0 l 68 122 l 124 122 l 124 854 l 69 854 l 124 977 l 564 977 q 703 905 646 966 l 703 916 l 825 977 l 825 732 l 1192 732 l 1192 732 q 1394 793 1275 793 q 1544 755 1478 793 q 1638 671 1598 725 l 1699 671 l 1638 549 l 1577 549 q 1554 610 1577 580 q 1394 671 1508 671 l 1369 671 q 1339 669 1352 671 q 1279 656 1304 666 q 1211 549 1211 629 q 1287 484 1211 510 q 1365 463 1314 475 l 1387 458 l 1409 453 l 1455 442 q 1623 378 1568 414 q 1699 244 1699 327 q 1609 59 1699 123 q 1394 0 1528 0 q 1255 33 1320 0 q 1232 47 1243 39 q 1148 16 1200 28 q 1008 0 1081 0 q 741 153 818 0 q 703 305 703 229 l 703 498 m 1088 127 l 1088 244 l 1221 244 q 1287 157 1240 190 q 1394 122 1335 122 q 1523 145 1480 122 q 1577 244 1577 174 q 1500 309 1577 283 q 1422 330 1473 318 l 1400 335 l 1378 340 l 1333 351 q 1164 416 1219 379 q 1088 549 1088 467 q 1098 610 1088 581 l 825 610 l 825 305 q 848 214 825 259 q 903 151 868 174 q 1008 122 945 122 q 1088 127 1050 122 z "},"€":{"ha":1057,"x_min":68,"x_max":989,"o":"m 285 346 q 364 229 311 282 q 614 122 468 126 l 623 122 q 867 216 763 122 l 928 244 l 989 244 l 989 122 l 946 122 q 625 0 808 0 l 609 0 q 278 143 415 6 q 155 346 189 233 l 68 346 l 68 420 l 139 420 q 135 488 135 454 l 135 495 l 68 495 l 68 570 l 141 570 q 278 833 165 720 q 609 977 415 970 l 625 977 q 946 854 808 977 l 989 854 l 928 732 l 867 732 l 867 761 q 623 854 763 854 l 614 854 q 364 747 468 850 q 265 570 287 670 l 677 570 l 677 495 l 257 495 l 257 488 q 262 420 257 453 l 677 420 l 677 346 l 285 346 z "},"№":{"ha":1527,"x_min":68,"x_max":1459,"o":"m 800 977 l 739 854 l 739 122 l 800 122 l 800 0 l 617 0 l 251 732 l 251 122 l 312 122 l 312 0 l 68 0 l 68 122 l 129 122 l 129 854 l 68 854 l 129 977 l 251 977 l 622 235 l 622 977 l 800 977 m 1198 903 q 1070 855 1123 903 q 1016 739 1016 807 q 1070 622 1016 670 q 1198 574 1123 574 q 1326 622 1273 574 q 1379 739 1379 670 q 1326 855 1379 807 q 1198 903 1273 903 m 1460 739 q 1383 570 1460 640 q 1198 500 1306 500 q 1012 570 1089 500 q 936 739 936 640 q 1012 907 936 837 q 1198 977 1089 977 q 1383 907 1306 977 q 1460 739 1460 837 m 1045 351 l 1045 426 l 1350 426 l 1350 351 l 1045 351 z "},"™":{"ha":850,"x_min":68,"x_max":782,"o":"m 398 977 l 397 903 l 342 903 l 342 928 l 260 928 l 260 635 l 288 635 l 288 586 l 178 586 l 178 635 l 205 635 l 205 928 l 123 928 l 123 903 l 68 903 l 68 977 l 398 977 m 782 977 l 754 928 l 754 635 l 782 635 l 782 586 l 672 586 l 672 635 l 700 635 l 700 879 l 617 732 l 562 732 l 480 879 l 480 635 l 507 635 l 507 586 l 397 586 l 397 635 l 425 635 l 425 928 l 397 928 l 425 977 l 480 977 l 590 781 l 700 977 l 782 977 z "},"∆":{"ha":1112,"x_min":68,"x_max":1044,"o":"m 1044 0 l 68 0 l 556 977 l 1044 0 m 251 122 l 861 122 l 556 732 l 251 122 z "},"∏":{"ha":1033,"x_min":68,"x_max":965,"o":"m 904 977 l 904 -149 l 965 -149 l 965 -271 l 721 -271 l 721 -149 l 782 -149 l 782 854 l 251 854 l 251 -149 l 312 -149 l 312 -271 l 68 -271 l 68 -149 l 129 -149 l 129 977 l 904 977 z "},"∑":{"ha":882,"x_min":68,"x_max":814,"o":"m 814 977 l 814 916 l 753 793 l 692 793 l 692 854 l 251 854 l 726 353 l 251 -149 l 692 -149 l 692 -88 l 814 -88 l 814 -271 l 68 -271 l 68 -149 l 543 353 l 68 854 l 68 977 l 814 977 z "},"−":{"ha":582,"x_min":68,"x_max":514,"o":"m 68 375 l 68 450 l 514 450 l 514 375 l 68 375 z "},"∞":{"ha":1068,"x_min":68,"x_max":1000,"o":"m 559 309 q 743 256 611 256 q 878 439 878 256 q 743 621 878 621 q 559 568 611 621 l 559 309 m 178 411 q 191 341 178 376 q 286 271 218 271 q 450 318 404 271 l 450 551 q 286 597 404 597 q 191 527 218 597 q 178 457 178 492 l 178 411 m 498 248 q 286 178 418 178 q 116 243 170 178 q 68 411 68 299 l 68 457 q 116 625 68 569 q 286 690 170 690 q 498 621 418 690 q 743 724 590 724 q 1000 439 1000 711 q 743 153 1000 170 q 498 248 590 153 z "},"≈":{"ha":793,"x_min":68,"x_max":726,"o":"m 726 495 q 593 404 663 423 q 541 397 567 397 q 418 427 484 397 q 294 465 353 457 q 224 455 258 465 q 150 399 168 441 l 68 503 q 202 592 131 566 q 258 599 227 599 q 377 570 313 599 q 499 532 441 541 q 569 542 536 532 q 644 597 625 558 l 726 495 m 726 293 q 593 201 663 221 q 541 195 567 195 q 418 225 484 195 q 294 262 353 255 q 224 253 258 262 q 150 197 168 239 l 68 300 q 202 390 131 363 q 258 397 227 397 q 377 368 313 397 q 499 330 441 338 q 569 340 536 330 q 644 395 625 356 l 726 293 z "},"≤":{"ha":563,"x_min":68,"x_max":514,"o":"m 495 478 l 373 417 l 373 426 l 210 356 l 373 286 l 373 295 l 495 234 l 495 112 l 68 295 l 68 417 l 495 600 l 495 478 m 68 0 l 68 75 l 514 75 l 514 0 l 68 0 z "},"≥":{"ha":563,"x_min":68,"x_max":514,"o":"m 68 600 l 495 417 l 495 295 l 68 112 l 68 234 l 190 295 l 190 286 l 353 356 l 190 426 l 190 417 l 68 478 l 68 600 m 68 0 l 68 75 l 514 75 l 514 0 l 68 0 z "},"":{"ha":989,"x_min":68,"x_max":921,"o":"m 909 978 q 882 913 909 940 q 818 886 856 886 q 753 913 780 886 q 726 978 726 940 q 753 1042 726 1016 q 818 1069 780 1069 q 882 1042 856 1069 q 909 978 909 1016 m 738 671 l 738 732 l 921 793 l 921 671 l 860 671 l 860 122 l 921 122 l 921 0 l 677 0 l 677 122 l 738 122 l 738 549 l 251 549 l 251 122 l 312 122 l 312 0 l 68 0 l 68 122 l 129 122 l 129 549 l 68 549 l 68 671 l 129 671 l 129 793 q 167 946 129 869 q 258 1051 200 1013 q 434 1099 329 1099 q 574 1082 507 1099 q 678 1038 646 1065 l 617 916 l 556 916 l 556 963 q 434 977 500 977 q 328 948 371 977 q 274 885 294 925 q 251 793 251 839 l 251 671 l 738 671 z "},"ﬁ":{"ha":989,"x_min":68,"x_max":921,"o":"m 909 978 q 882 913 909 940 q 818 886 856 886 q 753 913 780 886 q 726 978 726 940 q 753 1042 726 1016 q 818 1069 780 1069 q 882 1042 856 1069 q 909 978 909 1016 m 738 671 l 738 732 l 921 793 l 921 671 l 860 671 l 860 122 l 921 122 l 921 0 l 677 0 l 677 122 l 738 122 l 738 549 l 251 549 l 251 122 l 312 122 l 312 0 l 68 0 l 68 122 l 129 122 l 129 549 l 68 549 l 68 671 l 129 671 l 129 793 q 167 946 129 869 q 258 1051 200 1013 q 434 1099 329 1099 q 574 1082 507 1099 q 678 1038 646 1065 l 617 916 l 556 916 l 556 963 q 434 977 500 977 q 328 948 371 977 q 274 885 294 925 q 251 793 251 839 l 251 671 l 738 671 z "},"":{"ha":1059,"x_min":68,"x_max":991,"o":"m 556 916 l 556 963 q 434 977 500 977 q 328 948 371 977 q 274 885 294 925 q 251 793 251 839 l 251 671 l 610 671 l 610 549 l 251 549 l 251 122 l 312 122 l 312 0 l 68 0 l 68 122 l 129 122 l 129 549 l 68 549 l 68 671 l 129 671 l 129 793 q 167 946 129 869 q 258 1051 200 1013 q 434 1099 329 1099 q 574 1082 507 1099 q 678 1038 646 1065 l 617 916 l 556 916 m 991 977 l 991 854 l 930 854 l 930 122 l 991 122 l 991 0 l 808 0 l 808 854 l 747 854 l 808 977 l 991 977 z "},"ﬂ":{"ha":1059,"x_min":68,"x_max":991,"o":"m 556 916 l 556 963 q 434 977 500 977 q 328 948 371 977 q 274 885 294 925 q 251 793 251 839 l 251 671 l 610 671 l 610 549 l 251 549 l 251 122 l 312 122 l 312 0 l 68 0 l 68 122 l 129 122 l 129 549 l 68 549 l 68 671 l 129 671 l 129 793 q 167 946 129 869 q 258 1051 200 1013 q 434 1099 329 1099 q 574 1082 507 1099 q 678 1038 646 1065 l 617 916 l 556 916 m 991 977 l 991 854 l 930 854 l 930 122 l 991 122 l 991 0 l 808 0 l 808 854 l 747 854 l 808 977 l 991 977 z "}}}
